<svg width="112" height="44" viewBox="0 0 112 44" fill="none" xmlns="http://www.w3.org/2000/svg">
<rect width="111.238" height="43.9228" rx="6.15373" fill="#22251B"/>
<rect x="10.2559" y="10.6965" width="22.5976" height="22.5298" rx="11.2649" fill="#CAFF33"/>
<path fill-rule="evenodd" clip-rule="evenodd" d="M21.555 18.5095C21.768 18.5095 21.9407 18.6812 21.9407 18.8931V21.5779L24.6404 21.5779C24.8534 21.5779 25.026 21.7496 25.026 21.9615C25.026 22.1733 24.8534 22.345 24.6404 22.345H21.9407V25.0299C21.9407 25.2417 21.768 25.4134 21.555 25.4134C21.342 25.4134 21.1693 25.2417 21.1693 25.0299V22.345H18.4697C18.2567 22.345 18.084 22.1733 18.084 21.9615C18.084 21.7496 18.2567 21.5779 18.4697 21.5779L21.1693 21.5779V18.8931C21.1693 18.6812 21.342 18.5095 21.555 18.5095Z" fill="#1A1A1A"/>
<path d="M38.443 16.7946V15.8716H43.5813V16.7946H38.443ZM40.4634 18.7741V13.8203H41.5404V18.7741H40.4634ZM50.136 19.3074C49.548 19.3074 49.0283 19.1912 48.5771 18.9587C48.1326 18.7262 47.7497 18.3775 47.4284 17.9126L48.1873 17.0408C48.5224 17.5194 48.8437 17.851 49.1514 18.0356C49.4591 18.2202 49.8249 18.3125 50.2488 18.3125C50.5087 18.3125 50.7446 18.2715 50.9565 18.1895C51.1685 18.1074 51.336 17.9946 51.4591 17.851C51.5821 17.7074 51.6437 17.5433 51.6437 17.3587C51.6437 17.2356 51.6232 17.1194 51.5821 17.01C51.5411 16.9006 51.4762 16.8015 51.3873 16.7126C51.3052 16.6237 51.1958 16.5416 51.0591 16.4664C50.9292 16.3912 50.7753 16.3263 50.5975 16.2716C50.4198 16.21 50.2146 16.1587 49.9822 16.1177C49.4899 16.022 49.0796 15.8784 48.7514 15.687C48.4301 15.4955 48.1873 15.2528 48.0232 14.9588C47.866 14.6648 47.7873 14.3229 47.7873 13.9331C47.7873 13.646 47.8489 13.3793 47.972 13.1332C48.1019 12.887 48.2762 12.675 48.495 12.4973C48.7207 12.3127 48.9839 12.1725 49.2848 12.0768C49.5856 11.9742 49.9104 11.9229 50.2591 11.9229C50.8129 11.9229 51.295 12.0323 51.7052 12.2511C52.1223 12.4631 52.4505 12.7742 52.6898 13.1844L51.9103 13.9537C51.7052 13.6186 51.4591 13.3622 51.1719 13.1844C50.8916 13.0067 50.577 12.9178 50.2283 12.9178C49.9617 12.9178 49.7292 12.9588 49.5309 13.0409C49.3326 13.1229 49.1754 13.2391 49.0591 13.3896C48.9497 13.5331 48.895 13.7041 48.895 13.9024C48.895 14.046 48.9224 14.1793 48.9771 14.3024C49.0318 14.4186 49.1138 14.5246 49.2232 14.6203C49.3395 14.7092 49.4933 14.7912 49.6847 14.8665C49.8762 14.9348 50.1052 14.9964 50.3719 15.0511C50.748 15.1331 51.083 15.2391 51.377 15.369C51.671 15.4921 51.9206 15.6391 52.1257 15.81C52.3308 15.981 52.4847 16.1724 52.5873 16.3844C52.6967 16.5963 52.7514 16.8254 52.7514 17.0715C52.7514 17.5297 52.6454 17.9262 52.4334 18.2613C52.2214 18.5963 51.9206 18.8561 51.5309 19.0407C51.1411 19.2185 50.6762 19.3074 50.136 19.3074ZM49.5206 20.1381V15.4818L50.5155 15.8203V20.1381H49.5206ZM50.9257 15.8203L49.9309 15.4818V11.1845H50.9257V15.8203ZM55.9515 19.2766C55.4797 19.2766 55.0524 19.1706 54.6695 18.9587C54.2866 18.7399 53.9687 18.4288 53.7157 18.0254L54.331 17.3382C54.6524 17.6938 54.9327 17.9365 55.1721 18.0664C55.4114 18.1963 55.6712 18.2613 55.9515 18.2613C56.2319 18.2613 56.4849 18.1997 56.7105 18.0767C56.9361 17.9536 57.1139 17.7861 57.2438 17.5741C57.3806 17.3621 57.4489 17.1262 57.4489 16.8664C57.4489 16.5929 57.384 16.3502 57.2541 16.1382C57.131 15.9194 56.9635 15.7485 56.7515 15.6254C56.5396 15.4955 56.3002 15.4305 56.0336 15.4305C55.9037 15.4305 55.7806 15.4408 55.6644 15.4613C55.5481 15.475 55.408 15.5126 55.2439 15.5741C55.0798 15.6357 54.8644 15.7314 54.5977 15.8613L54.0131 15.0716L54.4336 12.0255H58.3105V13.0511H55.131L55.3464 12.8562L55.008 15.1331L54.7516 14.8357C54.8199 14.7673 54.9362 14.7024 55.1003 14.6408C55.2644 14.5724 55.4456 14.5177 55.6438 14.4767C55.849 14.4289 56.0438 14.4049 56.2284 14.4049C56.666 14.4049 57.0558 14.5075 57.3977 14.7126C57.7464 14.9109 58.0199 15.1878 58.2182 15.5434C58.4233 15.8989 58.5258 16.3057 58.5258 16.7639C58.5258 17.2356 58.413 17.663 58.1874 18.0459C57.9617 18.4219 57.6541 18.7228 57.2643 18.9484C56.8746 19.1672 56.437 19.2766 55.9515 19.2766ZM62.2525 19.3074C61.7055 19.3074 61.2337 19.157 60.8372 18.8561C60.4474 18.5553 60.1466 18.1314 59.9346 17.5844C59.7227 17.0305 59.6167 16.3741 59.6167 15.6152C59.6167 14.8562 59.7227 14.2032 59.9346 13.6562C60.1466 13.1024 60.4474 12.675 60.8372 12.3742C61.2337 12.0733 61.7055 11.9229 62.2525 11.9229C62.7995 11.9229 63.2713 12.0733 63.6679 12.3742C64.0645 12.675 64.3687 13.1024 64.5807 13.6562C64.7927 14.2032 64.8986 14.8562 64.8986 15.6152C64.8986 16.3741 64.7927 17.0305 64.5807 17.5844C64.3687 18.1314 64.0645 18.5553 63.6679 18.8561C63.2713 19.157 62.7995 19.3074 62.2525 19.3074ZM62.2525 18.3023C62.7517 18.3023 63.138 18.0698 63.4115 17.6049C63.685 17.1331 63.8217 16.4698 63.8217 15.6152C63.8217 14.7605 63.685 14.1007 63.4115 13.6357C63.138 13.1639 62.7517 12.928 62.2525 12.928C61.7534 12.928 61.3671 13.1639 61.0936 13.6357C60.8201 14.1007 60.6833 14.7605 60.6833 15.6152C60.6833 16.4698 60.8201 17.1331 61.0936 17.6049C61.3671 18.0698 61.7534 18.3023 62.2525 18.3023ZM68.4824 19.3074C67.9354 19.3074 67.4636 19.157 67.067 18.8561C66.6773 18.5553 66.3764 18.1314 66.1645 17.5844C65.9525 17.0305 65.8465 16.3741 65.8465 15.6152C65.8465 14.8562 65.9525 14.2032 66.1645 13.6562C66.3764 13.1024 66.6773 12.675 67.067 12.3742C67.4636 12.0733 67.9354 11.9229 68.4824 11.9229C69.0294 11.9229 69.5012 12.0733 69.8977 12.3742C70.2943 12.675 70.5986 13.1024 70.8105 13.6562C71.0225 14.2032 71.1285 14.8562 71.1285 15.6152C71.1285 16.3741 71.0225 17.0305 70.8105 17.5844C70.5986 18.1314 70.2943 18.5553 69.8977 18.8561C69.5012 19.157 69.0294 19.3074 68.4824 19.3074ZM68.4824 18.3023C68.9815 18.3023 69.3678 18.0698 69.6413 17.6049C69.9148 17.1331 70.0516 16.4698 70.0516 15.6152C70.0516 14.7605 69.9148 14.1007 69.6413 13.6357C69.3678 13.1639 68.9815 12.928 68.4824 12.928C67.9832 12.928 67.5969 13.1639 67.3234 13.6357C67.0499 14.1007 66.9132 14.7605 66.9132 15.6152C66.9132 16.4698 67.0499 17.1331 67.3234 17.6049C67.5969 18.0698 67.9832 18.3023 68.4824 18.3023ZM74.7122 19.3074C74.1652 19.3074 73.6934 19.157 73.2969 18.8561C72.9071 18.5553 72.6063 18.1314 72.3943 17.5844C72.1824 17.0305 72.0764 16.3741 72.0764 15.6152C72.0764 14.8562 72.1824 14.2032 72.3943 13.6562C72.6063 13.1024 72.9071 12.675 73.2969 12.3742C73.6934 12.0733 74.1652 11.9229 74.7122 11.9229C75.2592 11.9229 75.731 12.0733 76.1276 12.3742C76.5242 12.675 76.8284 13.1024 77.0404 13.6562C77.2523 14.2032 77.3583 14.8562 77.3583 15.6152C77.3583 16.3741 77.2523 17.0305 77.0404 17.5844C76.8284 18.1314 76.5242 18.5553 76.1276 18.8561C75.731 19.157 75.2592 19.3074 74.7122 19.3074ZM74.7122 18.3023C75.2114 18.3023 75.5977 18.0698 75.8712 17.6049C76.1447 17.1331 76.2814 16.4698 76.2814 15.6152C76.2814 14.7605 76.1447 14.1007 75.8712 13.6357C75.5977 13.1639 75.2114 12.928 74.7122 12.928C74.2131 12.928 73.8268 13.1639 73.5533 13.6357C73.2798 14.1007 73.143 14.7605 73.143 15.6152C73.143 16.4698 73.2798 17.1331 73.5533 17.6049C73.8268 18.0698 74.2131 18.3023 74.7122 18.3023ZM78.737 21.0407L78.3473 20.5689C78.5866 20.4322 78.7814 20.2749 78.9319 20.0971C79.0823 19.9194 79.1575 19.7655 79.1575 19.6356C79.1575 19.5672 79.1404 19.4988 79.1062 19.4305C79.072 19.3689 79.0002 19.28 78.8908 19.1638C78.7541 19.0339 78.6652 18.9245 78.6242 18.8356C78.5831 18.7467 78.5626 18.651 78.5626 18.5484C78.5626 18.3843 78.6208 18.2544 78.737 18.1587C78.8532 18.0561 79.0037 18.0049 79.1883 18.0049C79.3592 18.0049 79.513 18.0561 79.6498 18.1587C79.7934 18.2544 79.9028 18.3912 79.978 18.5689C80.06 18.7399 80.1011 18.9382 80.1011 19.1638C80.1011 19.3689 80.0669 19.5672 79.9985 19.7587C79.9301 19.9501 79.8344 20.1279 79.7113 20.292C79.5883 20.4561 79.4447 20.6031 79.2806 20.733C79.1165 20.8629 78.9353 20.9655 78.737 21.0407ZM83.6764 19.3074C83.1294 19.3074 82.6576 19.157 82.261 18.8561C81.8713 18.5553 81.5705 18.1314 81.3585 17.5844C81.1465 17.0305 81.0405 16.3741 81.0405 15.6152C81.0405 14.8562 81.1465 14.2032 81.3585 13.6562C81.5705 13.1024 81.8713 12.675 82.261 12.3742C82.6576 12.0733 83.1294 11.9229 83.6764 11.9229C84.2234 11.9229 84.6952 12.0733 85.0918 12.3742C85.4883 12.675 85.7926 13.1024 86.0046 13.6562C86.2165 14.2032 86.3225 14.8562 86.3225 15.6152C86.3225 16.3741 86.2165 17.0305 86.0046 17.5844C85.7926 18.1314 85.4883 18.5553 85.0918 18.8561C84.6952 19.157 84.2234 19.3074 83.6764 19.3074ZM83.6764 18.3023C84.1755 18.3023 84.5618 18.0698 84.8353 17.6049C85.1088 17.1331 85.2456 16.4698 85.2456 15.6152C85.2456 14.7605 85.1088 14.1007 84.8353 13.6357C84.5618 13.1639 84.1755 12.928 83.6764 12.928C83.1773 12.928 82.7909 13.1639 82.5174 13.6357C82.2439 14.1007 82.1072 14.7605 82.1072 15.6152C82.1072 16.4698 82.2439 17.1331 82.5174 17.6049C82.7909 18.0698 83.1773 18.3023 83.6764 18.3023ZM89.9062 19.3074C89.3592 19.3074 88.8875 19.157 88.4909 18.8561C88.1011 18.5553 87.8003 18.1314 87.5883 17.5844C87.3764 17.0305 87.2704 16.3741 87.2704 15.6152C87.2704 14.8562 87.3764 14.2032 87.5883 13.6562C87.8003 13.1024 88.1011 12.675 88.4909 12.3742C88.8875 12.0733 89.3592 11.9229 89.9062 11.9229C90.4532 11.9229 90.925 12.0733 91.3216 12.3742C91.7182 12.675 92.0224 13.1024 92.2344 13.6562C92.4464 14.2032 92.5523 14.8562 92.5523 15.6152C92.5523 16.3741 92.4464 17.0305 92.2344 17.5844C92.0224 18.1314 91.7182 18.5553 91.3216 18.8561C90.925 19.157 90.4532 19.3074 89.9062 19.3074ZM89.9062 18.3023C90.4054 18.3023 90.7917 18.0698 91.0652 17.6049C91.3387 17.1331 91.4754 16.4698 91.4754 15.6152C91.4754 14.7605 91.3387 14.1007 91.0652 13.6357C90.7917 13.1639 90.4054 12.928 89.9062 12.928C89.4071 12.928 89.0208 13.1639 88.7473 13.6357C88.4738 14.1007 88.337 14.7605 88.337 15.6152C88.337 16.4698 88.4738 17.1331 88.7473 17.6049C89.0208 18.0698 89.4071 18.3023 89.9062 18.3023Z" fill="#59595A"/>
<path d="M38.8266 32.7175V26.974H39.4501L41.6573 30.5596L41.3619 30.5514L43.5936 26.974H44.1762V32.7175H43.5362V30.0919C43.5362 29.5996 43.5444 29.1566 43.5608 28.7627C43.5772 28.3689 43.6073 27.9778 43.6511 27.5894L43.7659 27.8192L41.7065 31.0519H41.2634L39.2614 27.8602L39.3517 27.5894C39.3954 27.9559 39.4255 28.3333 39.4419 28.7217C39.4583 29.1046 39.4665 29.5614 39.4665 30.0919V32.7175H38.8266ZM47.5189 32.7996C47.0922 32.7996 46.7121 32.7039 46.3784 32.5124C46.0502 32.321 45.7904 32.0557 45.5989 31.7165C45.4129 31.3774 45.32 30.9918 45.32 30.5596C45.32 30.133 45.4129 29.7528 45.5989 29.4191C45.7904 29.0855 46.0502 28.8229 46.3784 28.6315C46.7121 28.44 47.0922 28.3443 47.5189 28.3443C47.9401 28.3443 48.3148 28.44 48.643 28.6315C48.9766 28.8229 49.2365 29.0855 49.4224 29.4191C49.6139 29.7528 49.7096 30.133 49.7096 30.5596C49.7096 30.9918 49.6139 31.3774 49.4224 31.7165C49.2365 32.0557 48.9766 32.321 48.643 32.5124C48.3148 32.7039 47.9401 32.7996 47.5189 32.7996ZM47.5189 32.217C47.8197 32.217 48.0878 32.1459 48.323 32.0037C48.5582 31.856 48.7414 31.6591 48.8727 31.4129C49.004 31.1613 49.0696 30.8769 49.0696 30.5596C49.0696 30.2424 49.004 29.9607 48.8727 29.7145C48.7414 29.4684 48.5582 29.2769 48.323 29.1402C48.0878 28.9979 47.8197 28.9268 47.5189 28.9268C47.218 28.9268 46.9473 28.9979 46.7066 29.1402C46.4714 29.2769 46.2854 29.4711 46.1487 29.7227C46.0174 29.9689 45.9545 30.2478 45.9599 30.5596C45.9545 30.8769 46.0174 31.1613 46.1487 31.4129C46.2854 31.6591 46.4714 31.856 46.7066 32.0037C46.9473 32.1459 47.218 32.217 47.5189 32.217ZM50.6074 32.7175V28.4345H51.2146L51.2392 29.3289L51.1407 29.3699C51.1954 29.1839 51.3021 29.0144 51.4607 28.8612C51.6194 28.708 51.8081 28.585 52.0269 28.492C52.2511 28.3935 52.4809 28.3443 52.7161 28.3443C53.0334 28.3443 53.2987 28.4072 53.512 28.533C53.7253 28.6588 53.8867 28.853 53.9961 29.1155C54.1055 29.3781 54.1602 29.7118 54.1602 30.1166V32.7175H53.5366V30.1494C53.5366 29.8649 53.4983 29.6325 53.4217 29.452C53.3506 29.266 53.2385 29.1292 53.0853 29.0417C52.9322 28.9542 52.7434 28.9132 52.5192 28.9186C52.3332 28.9186 52.1609 28.9514 52.0023 29.0171C51.8436 29.0773 51.7069 29.162 51.592 29.2714C51.4771 29.3808 51.3869 29.5067 51.3213 29.6489C51.2556 29.7911 51.2228 29.9442 51.2228 30.1083V32.7175H50.9192C50.8809 32.7175 50.8372 32.7175 50.7879 32.7175C50.7387 32.7175 50.6785 32.7175 50.6074 32.7175ZM55.9257 32.7175V27.3105H56.541V32.7175H55.9257ZM54.9575 29.0253V28.4345H57.6241V29.0253H54.9575ZM58.3797 32.7175V26.6459H58.9951V29.3699L58.872 29.493C58.9322 29.2687 59.0443 29.0718 59.2084 28.9022C59.3725 28.7272 59.564 28.5904 59.7828 28.492C60.007 28.3935 60.234 28.3443 60.4638 28.3443C60.792 28.3443 61.0655 28.4072 61.2843 28.533C61.5031 28.6588 61.6644 28.853 61.7684 29.1155C61.8778 29.3781 61.9325 29.7118 61.9325 30.1166V32.7175H61.3089V30.1494C61.3089 29.8649 61.2706 29.6325 61.194 29.452C61.1229 29.266 61.0108 29.1292 60.8576 29.0417C60.7044 28.9542 60.513 28.9132 60.2833 28.9186C60.1028 28.9186 59.9332 28.9514 59.7746 29.0171C59.6159 29.0773 59.4792 29.162 59.3643 29.2714C59.2494 29.3808 59.1592 29.5067 59.0935 29.6489C59.0279 29.7911 58.9951 29.9442 58.9951 30.1083V32.7175H58.6915C58.6532 32.7175 58.6094 32.7175 58.5602 32.7175C58.511 32.7175 58.4508 32.7175 58.3797 32.7175ZM63.1236 32.7175V26.6459H63.739V32.7175H63.1236ZM65.5519 34.6047L66.3806 32.5862L66.4381 33.1688L64.2884 28.4345H64.9858L66.4545 31.7165C66.4982 31.804 66.542 31.908 66.5858 32.0283C66.6295 32.1432 66.6706 32.2581 66.7088 32.3729L66.4791 32.3483C66.5174 32.2553 66.5529 32.1596 66.5858 32.0611C66.6241 31.9627 66.6596 31.8669 66.6924 31.774L67.9806 28.4345H68.6862L66.955 32.7175L66.2165 34.6047H65.5519ZM71.608 32.7175V32.1104H72.5352V27.5812H71.608V26.974H74.1024V27.5812H73.1752V32.1104H74.1024V32.7175H71.608ZM75.2784 32.7175V28.4345H75.8856L75.9102 29.3289L75.8117 29.3699C75.8664 29.1839 75.9731 29.0144 76.1317 28.8612C76.2904 28.708 76.4791 28.585 76.6979 28.492C76.9222 28.3935 77.1519 28.3443 77.3871 28.3443C77.7044 28.3443 77.9697 28.4072 78.183 28.533C78.3963 28.6588 78.5577 28.853 78.6671 29.1155C78.7765 29.3781 78.8312 29.7118 78.8312 30.1166V32.7175H78.2076V30.1494C78.2076 29.8649 78.1693 29.6325 78.0927 29.452C78.0216 29.266 77.9095 29.1292 77.7563 29.0417C77.6032 28.9542 77.4144 28.9132 77.1902 28.9186C77.0042 28.9186 76.8319 28.9514 76.6733 29.0171C76.5146 29.0773 76.3779 29.162 76.263 29.2714C76.1481 29.3808 76.0579 29.5067 75.9923 29.6489C75.9266 29.7911 75.8938 29.9442 75.8938 30.1083V32.7175H75.5902C75.5519 32.7175 75.5082 32.7175 75.4589 32.7175C75.4097 32.7175 75.3495 32.7175 75.2784 32.7175ZM81.811 32.7996C81.4062 32.7996 81.0452 32.7039 80.7279 32.5124C80.4107 32.3155 80.1591 32.0502 79.9731 31.7165C79.7926 31.3774 79.7023 30.9945 79.7023 30.5678C79.7023 30.1412 79.7926 29.761 79.9731 29.4273C80.1591 29.0882 80.4107 28.8229 80.7279 28.6315C81.0452 28.44 81.4089 28.3443 81.8192 28.3443C82.1857 28.3443 82.5193 28.4181 82.8202 28.5658C83.121 28.708 83.3617 28.9077 83.5422 29.1648L83.1812 29.6078C83.0773 29.4711 82.9515 29.3508 82.8038 29.2468C82.6616 29.1429 82.5057 29.0636 82.3361 29.0089C82.172 28.9487 82.0079 28.9186 81.8438 28.9186C81.5539 28.9186 81.2941 28.9925 81.0643 29.1402C80.8346 29.2824 80.6513 29.4766 80.5146 29.7227C80.3833 29.9689 80.3177 30.2506 80.3177 30.5678C80.3177 30.8851 80.3833 31.1695 80.5146 31.4211C80.6513 31.6673 80.8346 31.8615 81.0643 32.0037C81.2941 32.1459 81.5512 32.217 81.8356 32.217C81.9997 32.217 82.1611 32.1924 82.3197 32.1432C82.4783 32.0885 82.6287 32.0119 82.771 31.9134C82.9132 31.815 83.0445 31.6919 83.1648 31.5442L83.5258 31.9873C83.3398 32.2334 83.091 32.4304 82.7792 32.578C82.4674 32.7257 82.1447 32.7996 81.811 32.7996ZM86.2201 32.7996C85.7934 32.7996 85.4132 32.7039 85.0796 32.5124C84.7514 32.321 84.4916 32.0557 84.3001 31.7165C84.1141 31.3774 84.0211 30.9918 84.0211 30.5596C84.0211 30.133 84.1141 29.7528 84.3001 29.4191C84.4916 29.0855 84.7514 28.8229 85.0796 28.6315C85.4132 28.44 85.7934 28.3443 86.2201 28.3443C86.6413 28.3443 87.016 28.44 87.3441 28.6315C87.6778 28.8229 87.9376 29.0855 88.1236 29.4191C88.3151 29.7528 88.4108 30.133 88.4108 30.5596C88.4108 30.9918 88.3151 31.3774 88.1236 31.7165C87.9376 32.0557 87.6778 32.321 87.3441 32.5124C87.016 32.7039 86.6413 32.7996 86.2201 32.7996ZM86.2201 32.217C86.5209 32.217 86.7889 32.1459 87.0242 32.0037C87.2594 31.856 87.4426 31.6591 87.5739 31.4129C87.7052 31.1613 87.7708 30.8769 87.7708 30.5596C87.7708 30.2424 87.7052 29.9607 87.5739 29.7145C87.4426 29.4684 87.2594 29.2769 87.0242 29.1402C86.7889 28.9979 86.5209 28.9268 86.2201 28.9268C85.9192 28.9268 85.6485 28.9979 85.4078 29.1402C85.1726 29.2769 84.9866 29.4711 84.8498 29.7227C84.7186 29.9689 84.6557 30.2478 84.6611 30.5596C84.6557 30.8769 84.7186 31.1613 84.8498 31.4129C84.9866 31.6591 85.1726 31.856 85.4078 32.0037C85.6485 32.1459 85.9192 32.217 86.2201 32.217ZM89.3004 32.7175V28.4345H89.9158L89.9322 29.4109L89.8091 29.452C89.8529 29.2879 89.924 29.1402 90.0224 29.0089C90.1264 28.8721 90.2494 28.7545 90.3917 28.6561C90.5339 28.5576 90.6898 28.4838 90.8593 28.4345C91.0289 28.3798 91.2067 28.3525 91.3927 28.3525C91.6169 28.3525 91.8166 28.3908 91.9916 28.4674C92.1721 28.5385 92.3226 28.6643 92.4429 28.8448C92.5687 29.0198 92.6644 29.2523 92.7301 29.5422L92.5824 29.4684L92.6398 29.3289C92.6945 29.2031 92.7738 29.0827 92.8778 28.9679C92.9872 28.8475 93.1102 28.7409 93.247 28.6479C93.3892 28.5549 93.5424 28.4838 93.7065 28.4345C93.876 28.3798 94.0483 28.3525 94.2234 28.3525C94.5242 28.3525 94.7786 28.4181 94.9864 28.5494C95.1943 28.6752 95.3502 28.8694 95.4541 29.132C95.5635 29.3945 95.6182 29.7282 95.6182 30.133V32.7175H94.9864V30.1658C94.9864 29.8813 94.9509 29.6489 94.8798 29.4684C94.8087 29.2879 94.702 29.1538 94.5598 29.0663C94.423 28.9733 94.248 28.9268 94.0347 28.9268C93.8487 28.9268 93.6764 28.9597 93.5177 29.0253C93.3646 29.0855 93.2306 29.173 93.1157 29.2879C93.0063 29.3973 92.9188 29.5231 92.8531 29.6653C92.793 29.8075 92.7629 29.9607 92.7629 30.1248V32.7175H92.1393V30.1576C92.1393 29.8841 92.101 29.6571 92.0244 29.4766C91.9533 29.2961 91.8467 29.1593 91.7045 29.0663C91.5622 28.9733 91.3872 28.9268 91.1793 28.9268C90.9988 28.9268 90.832 28.9597 90.6788 29.0253C90.5257 29.0855 90.3917 29.1702 90.2768 29.2796C90.1674 29.389 90.0799 29.5149 90.0142 29.6571C89.9541 29.7993 89.924 29.9525 89.924 30.1166V32.7175H89.3004ZM98.6716 32.7996C98.2449 32.7996 97.8647 32.7066 97.5311 32.5206C97.2029 32.3346 96.9458 32.0748 96.7598 31.7411C96.5738 31.4075 96.4808 31.0246 96.4808 30.5924C96.4808 30.2588 96.5328 29.9579 96.6367 29.6899C96.7407 29.4164 96.8856 29.1785 97.0716 28.9761C97.263 28.7737 97.49 28.6178 97.7526 28.5084C98.0152 28.3935 98.2996 28.3361 98.6059 28.3361C98.8958 28.3361 99.1584 28.388 99.3936 28.492C99.6343 28.5959 99.8394 28.7409 100.009 28.9268C100.184 29.1073 100.315 29.3234 100.403 29.575C100.49 29.8266 100.529 30.1029 100.518 30.4037L100.509 30.6909H96.9403L96.8501 30.174H100.042L99.8941 30.3135V30.1166C99.8832 29.9196 99.8257 29.7309 99.7218 29.5504C99.6179 29.3644 99.4702 29.214 99.2787 29.0991C99.0927 28.9843 98.8685 28.9268 98.6059 28.9268C98.2996 28.9268 98.0343 28.9897 97.81 29.1155C97.5858 29.2359 97.4135 29.4164 97.2931 29.6571C97.1728 29.8978 97.1126 30.1959 97.1126 30.5514C97.1126 30.8906 97.1783 31.1859 97.3095 31.4376C97.4408 31.6837 97.6268 31.8752 97.8675 32.0119C98.1136 32.1487 98.409 32.217 98.7536 32.217C98.956 32.217 99.1557 32.1842 99.3526 32.1186C99.555 32.0475 99.7765 31.9107 100.017 31.7083L100.337 32.1514C100.211 32.2772 100.061 32.3893 99.8859 32.4878C99.7109 32.5808 99.5194 32.6574 99.3115 32.7175C99.1037 32.7722 98.8904 32.7996 98.6716 32.7996Z" fill="#E4E4E7"/>
</svg>
