<svg width="266" height="134" viewBox="0 0 266 134" fill="none" xmlns="http://www.w3.org/2000/svg">
<path d="M3.65983 11.5125V7.93303L3.73162 8.43559L0.829111 4.3331H2.38806L4.6034 7.51253L4.12136 7.48176L6.12132 4.3331H7.61872L4.83929 8.54841L4.99313 7.85098V11.5125H3.65983ZM10.0478 11.615C9.50768 11.615 9.02564 11.4954 8.60172 11.256C8.17779 11.0099 7.84276 10.6749 7.59661 10.2509C7.35046 9.82701 7.22738 9.34497 7.22738 8.80481C7.22738 8.26465 7.35046 7.78261 7.59661 7.35868C7.84276 6.93476 8.17779 6.60314 8.60172 6.36383C9.02564 6.11768 9.50768 5.99461 10.0478 5.99461C10.5812 5.99461 11.0598 6.11768 11.4837 6.36383C11.9076 6.60314 12.2393 6.93476 12.4786 7.35868C12.7247 7.78261 12.8478 8.26465 12.8478 8.80481C12.8478 9.34497 12.7247 9.82701 12.4786 10.2509C12.2393 10.6749 11.9076 11.0099 11.4837 11.256C11.0598 11.4954 10.5812 11.615 10.0478 11.615ZM10.0478 10.4971C10.3419 10.4971 10.6017 10.4219 10.8273 10.2714C11.0598 10.121 11.241 9.91932 11.3709 9.66633C11.5076 9.41335 11.5726 9.12617 11.5658 8.80481C11.5726 8.47661 11.5076 8.18602 11.3709 7.93303C11.241 7.68005 11.0598 7.48176 10.8273 7.33817C10.6017 7.18775 10.3419 7.11254 10.0478 7.11254C9.75383 7.11254 9.48717 7.18775 9.24786 7.33817C9.01538 7.48176 8.83419 7.68347 8.70428 7.94329C8.57437 8.19628 8.50941 8.48345 8.50941 8.80481C8.50941 9.12617 8.57437 9.41335 8.70428 9.66633C8.83419 9.91932 9.01538 10.121 9.24786 10.2714C9.48717 10.4219 9.75383 10.4971 10.0478 10.4971ZM15.8531 11.615C15.4634 11.615 15.1249 11.5295 14.8377 11.3586C14.5506 11.1808 14.3318 10.9313 14.1813 10.6099C14.0309 10.2817 13.9557 9.89197 13.9557 9.4407V6.10743H15.2172V9.17403C15.2172 9.46121 15.2617 9.70736 15.3505 9.91248C15.4394 10.1108 15.5693 10.2646 15.7403 10.374C15.9112 10.4834 16.1163 10.5381 16.3557 10.5381C16.5334 10.5381 16.6941 10.5108 16.8377 10.4561C16.9881 10.3945 17.118 10.3125 17.2274 10.2099C17.3368 10.1005 17.4223 9.97402 17.4838 9.83043C17.5454 9.68001 17.5761 9.51933 17.5761 9.34839V6.10743H18.8377V11.5125H17.6069L17.5864 10.3843L17.812 10.2612C17.73 10.521 17.5898 10.7535 17.3915 10.9586C17.2001 11.1569 16.971 11.3176 16.7044 11.4407C16.4377 11.5569 16.1539 11.615 15.8531 11.615ZM20.3162 11.5125V6.10743H21.5572L21.5777 7.83047L21.4034 7.44073C21.4786 7.16724 21.6085 6.92109 21.7931 6.70229C21.9777 6.48349 22.1897 6.31255 22.429 6.18948C22.6752 6.05956 22.9316 5.99461 23.1982 5.99461C23.3145 5.99461 23.4239 6.00486 23.5264 6.02538C23.6358 6.04589 23.7247 6.06982 23.7931 6.09717L23.4546 7.48176C23.3794 7.44073 23.2871 7.40655 23.1777 7.3792C23.0683 7.35185 22.9589 7.33817 22.8495 7.33817C22.6786 7.33817 22.5145 7.37236 22.3572 7.44073C22.2068 7.50227 22.0735 7.59116 21.9572 7.7074C21.841 7.82363 21.7487 7.96038 21.6803 8.11764C21.6188 8.26807 21.588 8.43901 21.588 8.63046V11.5125H20.3162ZM29.3093 11.5125V5.56385H27.2581V4.3331H32.7554V5.56385H30.6426V11.5125H29.3093ZM33.2266 11.5125V6.10743H34.4676L34.4882 7.83047L34.3138 7.44073C34.389 7.16724 34.5189 6.92109 34.7035 6.70229C34.8881 6.48349 35.1001 6.31255 35.3394 6.18948C35.5856 6.05956 35.842 5.99461 36.1086 5.99461C36.2249 5.99461 36.3343 6.00486 36.4368 6.02538C36.5462 6.04589 36.6351 6.06982 36.7035 6.09717L36.365 7.48176C36.2898 7.44073 36.1975 7.40655 36.0881 7.3792C35.9787 7.35185 35.8693 7.33817 35.7599 7.33817C35.589 7.33817 35.4249 7.37236 35.2676 7.44073C35.1172 7.50227 34.9839 7.59116 34.8676 7.7074C34.7514 7.82363 34.6591 7.96038 34.5907 8.11764C34.5292 8.26807 34.4984 8.43901 34.4984 8.63046V11.5125H33.2266ZM39.3541 11.615C38.9097 11.615 38.5062 11.4919 38.1439 11.2458C37.7815 10.9996 37.4909 10.6646 37.2721 10.2407C37.0533 9.81676 36.9439 9.33472 36.9439 8.79455C36.9439 8.25439 37.0533 7.77235 37.2721 7.34843C37.4909 6.92451 37.7883 6.59289 38.1644 6.35358C38.5404 6.11426 38.9644 5.99461 39.4361 5.99461C39.7096 5.99461 39.9592 6.03563 40.1848 6.11768C40.4105 6.1929 40.6088 6.30229 40.7797 6.44588C40.9506 6.58947 41.0908 6.75357 41.2002 6.93818C41.3164 7.12279 41.3951 7.32108 41.4361 7.53304L41.1592 7.46125V6.10743H42.431V11.5125H41.1489V10.2202L41.4464 10.1689C41.3985 10.3535 41.3096 10.5347 41.1797 10.7125C41.0566 10.8834 40.8994 11.0372 40.7079 11.174C40.5233 11.3039 40.3148 11.4099 40.0823 11.4919C39.8566 11.574 39.6139 11.615 39.3541 11.615ZM39.7028 10.4971C39.9968 10.4971 40.2566 10.4253 40.4823 10.2817C40.7079 10.1381 40.8823 9.93983 41.0053 9.68685C41.1352 9.42702 41.2002 9.12959 41.2002 8.79455C41.2002 8.46636 41.1352 8.17576 41.0053 7.92278C40.8823 7.66979 40.7079 7.4715 40.4823 7.32792C40.2566 7.18433 39.9968 7.11254 39.7028 7.11254C39.4088 7.11254 39.149 7.18433 38.9233 7.32792C38.7045 7.4715 38.5336 7.66979 38.4105 7.92278C38.2874 8.17576 38.2259 8.46636 38.2259 8.79455C38.2259 9.12959 38.2874 9.42702 38.4105 9.68685C38.5336 9.93983 38.7045 10.1381 38.9233 10.2817C39.149 10.4253 39.4088 10.4971 39.7028 10.4971ZM43.8935 11.5125V6.10743H45.1242L45.1448 7.2151L44.9089 7.33817C44.9772 7.09202 45.1106 6.86981 45.3089 6.67152C45.5071 6.46639 45.743 6.30229 46.0165 6.17922C46.29 6.05615 46.5704 5.99461 46.8575 5.99461C47.2678 5.99461 47.6097 6.07666 47.8832 6.24076C48.1635 6.40486 48.372 6.65101 48.5088 6.97921C48.6524 7.3074 48.7242 7.71765 48.7242 8.20995V11.5125H47.4627V8.30226C47.4627 8.02876 47.4251 7.80312 47.3498 7.62535C47.2746 7.44073 47.1584 7.3074 47.0011 7.22535C46.8439 7.13647 46.6524 7.09544 46.4268 7.10228C46.2422 7.10228 46.0712 7.13305 45.914 7.19459C45.7636 7.24929 45.6302 7.33134 45.514 7.44073C45.4046 7.5433 45.3157 7.66295 45.2473 7.7997C45.1858 7.93645 45.155 8.08688 45.155 8.25098V11.5125H44.5294C44.4063 11.5125 44.2901 11.5125 44.1807 11.5125C44.0781 11.5125 43.9824 11.5125 43.8935 11.5125ZM51.9485 11.615C51.4699 11.615 51.0391 11.5364 50.6562 11.3791C50.2801 11.215 49.9724 10.9825 49.7331 10.6817L50.5536 9.97402C50.7588 10.2065 50.9878 10.374 51.2408 10.4766C51.4938 10.5791 51.7604 10.6304 52.0408 10.6304C52.157 10.6304 52.2596 10.6167 52.3485 10.5894C52.4442 10.562 52.5262 10.521 52.5946 10.4663C52.663 10.4116 52.7143 10.3501 52.7485 10.2817C52.7895 10.2065 52.81 10.1244 52.81 10.0356C52.81 9.87146 52.7485 9.74155 52.6254 9.64582C52.557 9.59796 52.4476 9.54668 52.2972 9.49198C52.1536 9.43728 51.9656 9.38258 51.7331 9.32788C51.3639 9.23215 51.0562 9.12275 50.81 8.99968C50.5639 8.86977 50.3724 8.72618 50.2357 8.56892C50.1195 8.43901 50.0306 8.292 49.969 8.1279C49.9143 7.9638 49.887 7.78603 49.887 7.59458C49.887 7.35527 49.9383 7.13989 50.0408 6.94844C50.1502 6.75015 50.2972 6.57921 50.4818 6.43563C50.6664 6.29204 50.8818 6.18264 51.128 6.10743C51.3741 6.03221 51.6305 5.99461 51.8972 5.99461C52.1707 5.99461 52.4339 6.0288 52.6869 6.09717C52.9467 6.16555 53.1861 6.26469 53.4049 6.3946C53.6305 6.51768 53.8219 6.6681 53.9792 6.84587L53.2818 7.61509C53.1519 7.49202 53.0083 7.38262 52.851 7.28689C52.7006 7.19117 52.5468 7.11595 52.3895 7.06125C52.2322 6.99972 52.0852 6.96895 51.9485 6.96895C51.8186 6.96895 51.7023 6.98262 51.5998 7.00997C51.4972 7.03049 51.4117 7.06467 51.3434 7.11254C51.275 7.1604 51.2203 7.22194 51.1793 7.29715C51.1451 7.36552 51.128 7.44757 51.128 7.5433C51.1348 7.62535 51.1553 7.70398 51.1895 7.77919C51.2305 7.84756 51.2852 7.90568 51.3536 7.95355C51.4288 8.00141 51.5416 8.05611 51.6921 8.11764C51.8425 8.17918 52.0374 8.2373 52.2767 8.292C52.6117 8.38089 52.892 8.48003 53.1177 8.58943C53.3433 8.69883 53.5211 8.82532 53.651 8.96891C53.7809 9.09199 53.8732 9.23557 53.9279 9.39967C53.9826 9.56377 54.01 9.74496 54.01 9.94325C54.01 10.2646 53.9177 10.5518 53.7331 10.8048C53.5553 11.0578 53.3091 11.256 52.9946 11.3996C52.6869 11.5432 52.3382 11.615 51.9485 11.615ZM57.1622 11.615C56.7178 11.615 56.3144 11.4919 55.952 11.2458C55.5896 10.9996 55.299 10.6646 55.0802 10.2407C54.8614 9.81676 54.752 9.33472 54.752 8.79455C54.752 8.25439 54.8614 7.77235 55.0802 7.34843C55.299 6.92451 55.5965 6.59289 55.9725 6.35358C56.3486 6.11426 56.7725 5.99461 57.2443 5.99461C57.5178 5.99461 57.7674 6.03563 57.993 6.11768C58.2186 6.1929 58.4169 6.30229 58.5879 6.44588C58.7588 6.58947 58.899 6.75357 59.0084 6.93818C59.1246 7.12279 59.2032 7.32108 59.2442 7.53304L58.9673 7.46125V6.10743H60.2391V11.5125H58.9571V10.2202L59.2545 10.1689C59.2066 10.3535 59.1178 10.5347 58.9878 10.7125C58.8648 10.8834 58.7075 11.0372 58.5161 11.174C58.3314 11.3039 58.1229 11.4099 57.8904 11.4919C57.6648 11.574 57.4221 11.615 57.1622 11.615ZM57.5109 10.4971C57.805 10.4971 58.0648 10.4253 58.2904 10.2817C58.5161 10.1381 58.6904 9.93983 58.8135 9.68685C58.9434 9.42702 59.0084 9.12959 59.0084 8.79455C59.0084 8.46636 58.9434 8.17576 58.8135 7.92278C58.6904 7.66979 58.5161 7.4715 58.2904 7.32792C58.0648 7.18433 57.805 7.11254 57.5109 7.11254C57.2169 7.11254 56.9571 7.18433 56.7315 7.32792C56.5127 7.4715 56.3417 7.66979 56.2187 7.92278C56.0956 8.17576 56.0341 8.46636 56.0341 8.79455C56.0341 9.12959 56.0956 9.42702 56.2187 9.68685C56.3417 9.93983 56.5127 10.1381 56.7315 10.2817C56.9571 10.4253 57.2169 10.4971 57.5109 10.4971ZM64.0196 11.615C63.5136 11.615 63.0589 11.4919 62.6555 11.2458C62.2521 10.9996 61.9341 10.6646 61.7017 10.2407C61.4692 9.81676 61.3529 9.33813 61.3529 8.80481C61.3529 8.27149 61.4692 7.79286 61.7017 7.36894C61.9341 6.94502 62.2521 6.60998 62.6555 6.36383C63.0589 6.11768 63.5136 5.99461 64.0196 5.99461C64.505 5.99461 64.946 6.08691 65.3426 6.27153C65.7392 6.45614 66.0469 6.71254 66.2657 7.04074L65.5682 7.88175C65.4657 7.73816 65.3358 7.60825 65.1785 7.49202C65.0212 7.37578 64.8537 7.28347 64.676 7.2151C64.4982 7.14672 64.3204 7.11254 64.1426 7.11254C63.8418 7.11254 63.5717 7.18775 63.3324 7.33817C63.0999 7.48176 62.9153 7.68347 62.7786 7.94329C62.6418 8.19628 62.5734 8.48345 62.5734 8.80481C62.5734 9.12617 62.6418 9.41335 62.7786 9.66633C62.9221 9.91932 63.1136 10.121 63.3529 10.2714C63.5922 10.4219 63.8589 10.4971 64.1529 10.4971C64.3307 10.4971 64.5016 10.4697 64.6657 10.415C64.8366 10.3535 64.9973 10.268 65.1477 10.1586C65.2982 10.0492 65.4383 9.91248 65.5682 9.74838L66.2657 10.5996C66.0332 10.9005 65.7118 11.1466 65.3016 11.3381C64.8982 11.5227 64.4708 11.615 64.0196 11.615ZM67.815 11.5125V4.73309H69.0765V11.5125H67.815ZM66.7483 7.27664V6.10743H70.256V7.27664H66.7483ZM71.3603 11.5125V6.10743H72.6218V11.5125H71.3603ZM71.9757 4.95873C71.7227 4.95873 71.5244 4.89719 71.3808 4.77412C71.244 4.64421 71.1757 4.46301 71.1757 4.23054C71.1757 4.01174 71.2475 3.83397 71.3911 3.69722C71.5346 3.56047 71.7295 3.49209 71.9757 3.49209C72.2355 3.49209 72.4338 3.55705 72.5705 3.68696C72.7141 3.81004 72.7859 3.99123 72.7859 4.23054C72.7859 4.4425 72.7141 4.61686 72.5705 4.75361C72.4269 4.89036 72.2286 4.95873 71.9757 4.95873ZM76.6932 11.615C76.153 11.615 75.671 11.4954 75.2471 11.256C74.8231 11.0099 74.4881 10.6749 74.242 10.2509C73.9958 9.82701 73.8727 9.34497 73.8727 8.80481C73.8727 8.26465 73.9958 7.78261 74.242 7.35868C74.4881 6.93476 74.8231 6.60314 75.2471 6.36383C75.671 6.11768 76.153 5.99461 76.6932 5.99461C77.2265 5.99461 77.7051 6.11768 78.1291 6.36383C78.553 6.60314 78.8846 6.93476 79.1239 7.35868C79.3701 7.78261 79.4931 8.26465 79.4931 8.80481C79.4931 9.34497 79.3701 9.82701 79.1239 10.2509C78.8846 10.6749 78.553 11.0099 78.1291 11.256C77.7051 11.4954 77.2265 11.615 76.6932 11.615ZM76.6932 10.4971C76.9872 10.4971 77.247 10.4219 77.4727 10.2714C77.7051 10.121 77.8863 9.91932 78.0162 9.66633C78.153 9.41335 78.2179 9.12617 78.2111 8.80481C78.2179 8.47661 78.153 8.18602 78.0162 7.93303C77.8863 7.68005 77.7051 7.48176 77.4727 7.33817C77.247 7.18775 76.9872 7.11254 76.6932 7.11254C76.3992 7.11254 76.1325 7.18775 75.8932 7.33817C75.6607 7.48176 75.4795 7.68347 75.3496 7.94329C75.2197 8.19628 75.1548 8.48345 75.1548 8.80481C75.1548 9.12617 75.2197 9.41335 75.3496 9.66633C75.4795 9.91932 75.6607 10.121 75.8932 10.2714C76.1325 10.4219 76.3992 10.4971 76.6932 10.4971ZM80.6216 11.5125V6.10743H81.8523L81.8728 7.2151L81.6369 7.33817C81.7053 7.09202 81.8386 6.86981 82.0369 6.67152C82.2352 6.46639 82.4711 6.30229 82.7446 6.17922C83.0181 6.05615 83.2984 5.99461 83.5856 5.99461C83.9959 5.99461 84.3377 6.07666 84.6112 6.24076C84.8916 6.40486 85.1001 6.65101 85.2369 6.97921C85.3804 7.3074 85.4522 7.71765 85.4522 8.20995V11.5125H84.1907V8.30226C84.1907 8.02876 84.1531 7.80312 84.0779 7.62535C84.0027 7.44073 83.8865 7.3074 83.7292 7.22535C83.5719 7.13647 83.3805 7.09544 83.1548 7.10228C82.9702 7.10228 82.7993 7.13305 82.642 7.19459C82.4916 7.24929 82.3583 7.33134 82.242 7.44073C82.1326 7.5433 82.0438 7.66295 81.9754 7.7997C81.9138 7.93645 81.8831 8.08688 81.8831 8.25098V11.5125H81.2574C81.1344 11.5125 81.0181 11.5125 80.9087 11.5125C80.8062 11.5125 80.7104 11.5125 80.6216 11.5125ZM88.6765 11.615C88.1979 11.615 87.7672 11.5364 87.3843 11.3791C87.0082 11.215 86.7005 10.9825 86.4612 10.6817L87.2817 9.97402C87.4868 10.2065 87.7159 10.374 87.9689 10.4766C88.2218 10.5791 88.4885 10.6304 88.7688 10.6304C88.8851 10.6304 88.9876 10.6167 89.0765 10.5894C89.1723 10.562 89.2543 10.521 89.3227 10.4663C89.3911 10.4116 89.4423 10.3501 89.4765 10.2817C89.5175 10.2065 89.5381 10.1244 89.5381 10.0356C89.5381 9.87146 89.4765 9.74155 89.3534 9.64582C89.2851 9.59796 89.1757 9.54668 89.0252 9.49198C88.8817 9.43728 88.6936 9.38258 88.4612 9.32788C88.0919 9.23215 87.7842 9.12275 87.5381 8.99968C87.2919 8.86977 87.1005 8.72618 86.9637 8.56892C86.8475 8.43901 86.7586 8.292 86.6971 8.1279C86.6424 7.9638 86.615 7.78603 86.615 7.59458C86.615 7.35527 86.6663 7.13989 86.7689 6.94844C86.8783 6.75015 87.0253 6.57921 87.2099 6.43563C87.3945 6.29204 87.6099 6.18264 87.856 6.10743C88.1022 6.03221 88.3586 5.99461 88.6253 5.99461C88.8988 5.99461 89.162 6.0288 89.415 6.09717C89.6748 6.16555 89.9141 6.26469 90.1329 6.3946C90.3586 6.51768 90.55 6.6681 90.7073 6.84587L90.0098 7.61509C89.8799 7.49202 89.7363 7.38262 89.5791 7.28689C89.4287 7.19117 89.2748 7.11595 89.1176 7.06125C88.9603 6.99972 88.8133 6.96895 88.6765 6.96895C88.5466 6.96895 88.4304 6.98262 88.3278 7.00997C88.2253 7.03049 88.1398 7.06467 88.0714 7.11254C88.003 7.1604 87.9483 7.22194 87.9073 7.29715C87.8731 7.36552 87.856 7.44757 87.856 7.5433C87.8629 7.62535 87.8834 7.70398 87.9176 7.77919C87.9586 7.84756 88.0133 7.90568 88.0817 7.95355C88.1569 8.00141 88.2697 8.05611 88.4201 8.11764C88.5706 8.17918 88.7654 8.2373 89.0047 8.292C89.3398 8.38089 89.6201 8.48003 89.8457 8.58943C90.0714 8.69883 90.2492 8.82532 90.3791 8.96891C90.509 9.09199 90.6013 9.23557 90.656 9.39967C90.7107 9.56377 90.738 9.74496 90.738 9.94325C90.738 10.2646 90.6457 10.5518 90.4611 10.8048C90.2833 11.0578 90.0372 11.256 89.7227 11.3996C89.415 11.5432 89.0663 11.615 88.6765 11.615Z" fill="white"/>
<g opacity="0.2">
<rect x="21.5562" y="88.1275" width="222.887" height="44.8971" rx="5.89732" fill="#1C1C1C"/>
<rect x="21.5562" y="88.1275" width="222.887" height="44.8971" rx="5.89732" stroke="#262626" stroke-width="0.512811"/>
<rect x="33.6074" y="99.311" width="22.5976" height="22.5298" rx="11.2649" fill="#CAFF33"/>
<path fill-rule="evenodd" clip-rule="evenodd" d="M46.8812 105.814C46.7072 106 46.7181 106.291 46.9054 106.464L48.2015 107.661L42.9008 107.661C42.6452 107.661 42.438 107.867 42.438 108.121C42.438 108.375 42.6452 108.581 42.9008 108.581L48.2015 108.581L46.9054 109.778C46.7181 109.951 46.7072 110.243 46.8812 110.429C47.0551 110.615 47.3479 110.626 47.5352 110.453L49.695 108.458C49.7893 108.371 49.8429 108.249 49.8429 108.121C49.8429 107.993 49.7893 107.871 49.695 107.784L47.5352 105.789C47.3479 105.617 47.0551 105.627 46.8812 105.814ZM42.9314 110.723C42.7575 110.537 42.4647 110.526 42.2774 110.699L40.1176 112.693C40.0233 112.78 39.9697 112.903 39.9697 113.031C39.9697 113.159 40.0233 113.281 40.1176 113.368L42.2774 115.362C42.4647 115.535 42.7575 115.525 42.9314 115.338C43.1053 115.152 43.0945 114.861 42.9072 114.688L41.6111 113.491H46.9118C47.1674 113.491 47.3746 113.285 47.3746 113.031C47.3746 112.776 47.1674 112.57 46.9118 112.57H41.6111L42.9072 111.373C43.0945 111.201 43.1053 110.909 42.9314 110.723Z" fill="#1C1C1C"/>
<path d="M63.456 106.076V100.316H61.6099V99.6145H66.096V100.316H64.176V106.076H63.456ZM66.4869 106.076V101.258H67.1792L67.1977 102.541L67.1238 102.365C67.1915 102.15 67.2992 101.95 67.4469 101.765C67.6007 101.581 67.7823 101.433 67.9915 101.322C68.2007 101.211 68.4315 101.156 68.6838 101.156C68.7884 101.156 68.8869 101.165 68.9792 101.184C69.0715 101.196 69.1484 101.214 69.2099 101.239L69.0161 102.014C68.9361 101.978 68.853 101.953 68.7669 101.941C68.6869 101.922 68.61 101.913 68.5361 101.913C68.3269 101.913 68.1392 101.95 67.973 102.024C67.8069 102.098 67.6654 102.202 67.5484 102.338C67.4315 102.467 67.3423 102.618 67.2808 102.79C67.2192 102.962 67.1884 103.147 67.1884 103.344V106.076H66.4869ZM71.6061 106.168C71.1876 106.168 70.8092 106.061 70.4707 105.845C70.1323 105.624 69.8646 105.325 69.6677 104.95C69.4707 104.568 69.3723 104.138 69.3723 103.658C69.3723 103.171 69.4738 102.741 69.6769 102.365C69.88 101.99 70.1507 101.694 70.4892 101.479C70.8338 101.264 71.2184 101.156 71.643 101.156C71.8953 101.156 72.1291 101.193 72.3445 101.267C72.5599 101.341 72.7507 101.445 72.9168 101.581C73.0891 101.71 73.2307 101.864 73.3414 102.042C73.4584 102.214 73.5384 102.402 73.5814 102.605L73.3784 102.504L73.406 101.258H74.0983V106.076H73.3968V104.894L73.5814 104.774C73.5384 104.959 73.4553 105.137 73.3322 105.31C73.2091 105.476 73.0584 105.624 72.8799 105.753C72.7076 105.882 72.5107 105.984 72.2891 106.057C72.0738 106.131 71.8461 106.168 71.6061 106.168ZM71.763 105.504C72.083 105.504 72.3691 105.427 72.6214 105.273C72.8737 105.113 73.0707 104.894 73.2122 104.617C73.3599 104.334 73.4337 104.014 73.4337 103.658C73.4337 103.301 73.3599 102.984 73.2122 102.707C73.0707 102.43 72.8737 102.211 72.6214 102.051C72.3691 101.891 72.083 101.811 71.763 101.811C71.4369 101.811 71.1476 101.891 70.8953 102.051C70.6492 102.211 70.4523 102.43 70.3046 102.707C70.163 102.984 70.0923 103.301 70.0923 103.658C70.0923 104.008 70.163 104.325 70.3046 104.608C70.4461 104.885 70.643 105.104 70.8953 105.264C71.1476 105.424 71.4369 105.504 71.763 105.504ZM75.4471 106.076V101.258H76.1302L76.1578 102.264L76.0471 102.31C76.1086 102.101 76.2286 101.91 76.4071 101.738C76.5855 101.565 76.7978 101.427 77.044 101.322C77.2963 101.211 77.5547 101.156 77.8193 101.156C78.1763 101.156 78.4747 101.227 78.7147 101.368C78.9547 101.51 79.1362 101.728 79.2593 102.024C79.3824 102.319 79.4439 102.694 79.4439 103.15V106.076H78.7424V103.187C78.7424 102.867 78.6993 102.605 78.6132 102.402C78.5332 102.193 78.407 102.039 78.2347 101.941C78.0624 101.842 77.8501 101.796 77.5978 101.802C77.3886 101.802 77.1947 101.839 77.0163 101.913C76.8378 101.981 76.684 102.076 76.5548 102.199C76.4255 102.322 76.324 102.464 76.2501 102.624C76.1763 102.784 76.1394 102.956 76.1394 103.141V106.076H75.7979C75.7548 106.076 75.7055 106.076 75.6502 106.076C75.5948 106.076 75.5271 106.076 75.4471 106.076ZM82.3439 106.168C81.9316 106.168 81.5624 106.091 81.2363 105.937C80.9101 105.784 80.6517 105.581 80.4609 105.328L80.9501 104.904C81.1286 105.119 81.3378 105.282 81.5778 105.393C81.8239 105.504 82.0978 105.559 82.3993 105.559C82.5532 105.559 82.6916 105.544 82.8147 105.513C82.9378 105.476 83.0455 105.424 83.1378 105.356C83.2301 105.288 83.3008 105.208 83.3501 105.116C83.3993 105.024 83.4239 104.922 83.4239 104.811C83.4239 104.608 83.3347 104.439 83.1562 104.304C83.0762 104.248 82.9624 104.193 82.8147 104.138C82.667 104.076 82.4885 104.018 82.2793 103.962C81.9347 103.864 81.6486 103.765 81.4209 103.667C81.1932 103.562 81.0147 103.442 80.8855 103.307C80.7932 103.196 80.7224 103.076 80.6732 102.947C80.6301 102.818 80.6086 102.676 80.6086 102.522C80.6086 102.325 80.6486 102.144 80.7286 101.978C80.8147 101.811 80.9316 101.667 81.0793 101.544C81.2332 101.414 81.4116 101.319 81.6147 101.258C81.8239 101.19 82.0485 101.156 82.2885 101.156C82.5162 101.156 82.7408 101.187 82.9624 101.248C83.1839 101.31 83.3901 101.399 83.5808 101.516C83.7716 101.633 83.9347 101.771 84.07 101.931L83.6454 102.393C83.5285 102.27 83.3993 102.159 83.2578 102.061C83.1162 101.962 82.9655 101.885 82.8055 101.83C82.6516 101.774 82.4916 101.747 82.3255 101.747C82.1778 101.747 82.0393 101.765 81.9101 101.802C81.787 101.839 81.6793 101.891 81.587 101.959C81.5009 102.021 81.4332 102.098 81.3839 102.19C81.3409 102.282 81.3193 102.384 81.3193 102.494C81.3193 102.587 81.3378 102.67 81.3747 102.744C81.4116 102.818 81.4639 102.882 81.5316 102.938C81.6178 103.005 81.7378 103.07 81.8916 103.131C82.0516 103.187 82.2485 103.245 82.4824 103.307C82.7531 103.381 82.9808 103.458 83.1654 103.538C83.3562 103.611 83.5131 103.701 83.6362 103.805C83.8024 103.928 83.9193 104.07 83.987 104.23C84.0608 104.39 84.0977 104.571 84.0977 104.774C84.0977 105.045 84.0208 105.285 83.867 105.494C83.7193 105.704 83.5131 105.87 83.2485 105.993C82.9839 106.11 82.6824 106.168 82.3439 106.168ZM87.0655 106.168C86.6471 106.168 86.2686 106.061 85.9302 105.845C85.5917 105.624 85.324 105.325 85.1271 104.95C84.9302 104.568 84.8317 104.138 84.8317 103.658C84.8317 103.171 84.9333 102.741 85.1363 102.365C85.3394 101.99 85.6102 101.694 85.9486 101.479C86.2932 101.264 86.6778 101.156 87.1024 101.156C87.3547 101.156 87.5886 101.193 87.804 101.267C88.0193 101.341 88.2101 101.445 88.3763 101.581C88.5486 101.71 88.6901 101.864 88.8009 102.042C88.9178 102.214 88.9978 102.402 89.0409 102.605L88.8378 102.504L88.8655 101.258H89.5578V106.076H88.8563V104.894L89.0409 104.774C88.9978 104.959 88.9147 105.137 88.7916 105.31C88.6686 105.476 88.5178 105.624 88.3393 105.753C88.167 105.882 87.9701 105.984 87.7486 106.057C87.5332 106.131 87.3055 106.168 87.0655 106.168ZM87.2224 105.504C87.5424 105.504 87.8286 105.427 88.0809 105.273C88.3332 105.113 88.5301 104.894 88.6716 104.617C88.8193 104.334 88.8932 104.014 88.8932 103.658C88.8932 103.301 88.8193 102.984 88.6716 102.707C88.5301 102.43 88.3332 102.211 88.0809 102.051C87.8286 101.891 87.5424 101.811 87.2224 101.811C86.8963 101.811 86.6071 101.891 86.3548 102.051C86.1086 102.211 85.9117 102.43 85.764 102.707C85.6225 102.984 85.5517 103.301 85.5517 103.658C85.5517 104.008 85.6225 104.325 85.764 104.608C85.9055 104.885 86.1025 105.104 86.3548 105.264C86.6071 105.424 86.8963 105.504 87.2224 105.504ZM92.9373 106.168C92.4819 106.168 92.0757 106.061 91.7188 105.845C91.3619 105.624 91.0788 105.325 90.8696 104.95C90.6665 104.568 90.565 104.138 90.565 103.658C90.565 103.178 90.6665 102.75 90.8696 102.374C91.0788 101.993 91.3619 101.694 91.7188 101.479C92.0757 101.264 92.485 101.156 92.9465 101.156C93.3588 101.156 93.7342 101.239 94.0726 101.405C94.4111 101.565 94.6818 101.79 94.8849 102.079L94.4788 102.578C94.3618 102.424 94.2203 102.288 94.0542 102.171C93.8942 102.054 93.7188 101.965 93.528 101.904C93.3434 101.836 93.1588 101.802 92.9742 101.802C92.648 101.802 92.3557 101.885 92.0973 102.051C91.8388 102.211 91.6327 102.43 91.4788 102.707C91.3311 102.984 91.2573 103.301 91.2573 103.658C91.2573 104.014 91.3311 104.334 91.4788 104.617C91.6327 104.894 91.8388 105.113 92.0973 105.273C92.3557 105.433 92.645 105.513 92.9649 105.513C93.1496 105.513 93.3311 105.485 93.5096 105.43C93.688 105.368 93.8572 105.282 94.0172 105.171C94.1772 105.061 94.3249 104.922 94.4603 104.756L94.8665 105.254C94.6572 105.531 94.3772 105.753 94.0265 105.919C93.6757 106.085 93.3126 106.168 92.9373 106.168ZM96.4298 106.076V99.993H97.1221V106.076H96.4298ZM95.3406 101.922V101.258H98.3405V101.922H95.3406ZM99.3752 106.076V101.258H100.068V106.076H99.3752ZM99.7168 100.215C99.5445 100.215 99.4122 100.171 99.3199 100.085C99.2337 99.993 99.1906 99.8699 99.1906 99.716C99.1906 99.5622 99.2368 99.4391 99.3291 99.3468C99.4214 99.2545 99.5506 99.2084 99.7168 99.2084C99.8829 99.2084 100.012 99.2545 100.104 99.3468C100.197 99.433 100.243 99.5561 100.243 99.716C100.243 99.8637 100.197 99.9837 100.104 100.076C100.012 100.168 99.8829 100.215 99.7168 100.215ZM103.712 106.168C103.232 106.168 102.804 106.061 102.429 105.845C102.059 105.63 101.767 105.331 101.552 104.95C101.342 104.568 101.238 104.134 101.238 103.648C101.238 103.168 101.342 102.741 101.552 102.365C101.767 101.99 102.059 101.694 102.429 101.479C102.804 101.264 103.232 101.156 103.712 101.156C104.186 101.156 104.607 101.264 104.976 101.479C105.352 101.694 105.644 101.99 105.853 102.365C106.069 102.741 106.176 103.168 106.176 103.648C106.176 104.134 106.069 104.568 105.853 104.95C105.644 105.331 105.352 105.63 104.976 105.845C104.607 106.061 104.186 106.168 103.712 106.168ZM103.712 105.513C104.05 105.513 104.352 105.433 104.616 105.273C104.881 105.107 105.087 104.885 105.235 104.608C105.382 104.325 105.456 104.005 105.456 103.648C105.456 103.291 105.382 102.974 105.235 102.698C105.087 102.421 104.881 102.205 104.616 102.051C104.352 101.891 104.05 101.811 103.712 101.811C103.373 101.811 103.069 101.891 102.798 102.051C102.533 102.205 102.324 102.424 102.17 102.707C102.022 102.984 101.952 103.298 101.958 103.648C101.952 104.005 102.022 104.325 102.17 104.608C102.324 104.885 102.533 105.107 102.798 105.273C103.069 105.433 103.373 105.513 103.712 105.513ZM107.186 106.076V101.258H107.869L107.897 102.264L107.786 102.31C107.848 102.101 107.968 101.91 108.146 101.738C108.325 101.565 108.537 101.427 108.783 101.322C109.035 101.211 109.294 101.156 109.559 101.156C109.915 101.156 110.214 101.227 110.454 101.368C110.694 101.51 110.875 101.728 110.998 102.024C111.122 102.319 111.183 102.694 111.183 103.15V106.076H110.482V103.187C110.482 102.867 110.439 102.605 110.352 102.402C110.272 102.193 110.146 102.039 109.974 101.941C109.802 101.842 109.589 101.796 109.337 101.802C109.128 101.802 108.934 101.839 108.755 101.913C108.577 101.981 108.423 102.076 108.294 102.199C108.165 102.322 108.063 102.464 107.989 102.624C107.915 102.784 107.879 102.956 107.879 103.141V106.076H107.537C107.494 106.076 107.445 106.076 107.389 106.076C107.334 106.076 107.266 106.076 107.186 106.076Z" fill="white"/>
<path d="M62.3381 121.076V113.897H63.4458V120.009H66.8098V121.076H62.3381ZM70.5236 121.178C69.9698 121.178 69.4775 121.062 69.0467 120.83C68.6228 120.59 68.2878 120.266 68.0416 119.855C67.8023 119.445 67.6826 118.973 67.6826 118.44C67.6826 118.016 67.751 117.63 67.8878 117.281C68.0245 116.932 68.2125 116.632 68.4519 116.379C68.698 116.119 68.9886 115.92 69.3236 115.784C69.6655 115.64 70.0347 115.568 70.4313 115.568C70.78 115.568 71.1048 115.637 71.4057 115.773C71.7065 115.903 71.9663 116.085 72.1851 116.317C72.4108 116.55 72.5817 116.826 72.6979 117.148C72.821 117.462 72.8791 117.808 72.8723 118.184L72.862 118.635H68.4621L68.2262 117.794H71.9492L71.7954 117.968V117.722C71.7749 117.497 71.6997 117.295 71.5697 117.117C71.4398 116.939 71.2757 116.799 71.0775 116.697C70.8792 116.594 70.6638 116.543 70.4313 116.543C70.0621 116.543 69.751 116.614 69.498 116.758C69.245 116.895 69.0536 117.1 68.9236 117.373C68.7937 117.64 68.7288 117.972 68.7288 118.368C68.7288 118.744 68.8074 119.073 68.9647 119.353C69.1219 119.626 69.3442 119.838 69.6313 119.989C69.9185 120.139 70.2501 120.214 70.6262 120.214C70.8928 120.214 71.139 120.17 71.3646 120.081C71.5971 119.992 71.8467 119.832 72.1133 119.599L72.6467 120.348C72.4826 120.512 72.2808 120.655 72.0415 120.778C71.8091 120.902 71.5595 121.001 71.2928 121.076C71.033 121.144 70.7766 121.178 70.5236 121.178ZM74.0203 121.076V115.691H75.0767V116.799L74.8921 116.922C74.9605 116.683 75.0938 116.464 75.2921 116.266C75.4904 116.061 75.7263 115.897 75.9998 115.773C76.2733 115.644 76.5536 115.579 76.8408 115.579C77.2511 115.579 77.5929 115.661 77.8664 115.825C78.1399 115.982 78.345 116.225 78.4818 116.553C78.6185 116.881 78.6869 117.295 78.6869 117.794V121.076H77.6305V117.866C77.6305 117.558 77.5895 117.305 77.5075 117.107C77.4254 116.902 77.2989 116.755 77.128 116.666C76.957 116.57 76.7451 116.529 76.4921 116.543C76.287 116.543 76.0989 116.577 75.928 116.645C75.7571 116.707 75.6066 116.796 75.4767 116.912C75.3537 117.028 75.2545 117.165 75.1793 117.322C75.1109 117.473 75.0767 117.637 75.0767 117.814V121.076H74.5537C74.4648 121.076 74.3759 121.076 74.287 121.076C74.1981 121.076 74.1092 121.076 74.0203 121.076ZM82.6328 121.178C82.0789 121.178 81.5866 121.062 81.1559 120.83C80.7319 120.59 80.3969 120.266 80.1508 119.855C79.9114 119.445 79.7918 118.973 79.7918 118.44C79.7918 118.016 79.8602 117.63 79.9969 117.281C80.1337 116.932 80.3217 116.632 80.561 116.379C80.8072 116.119 81.0977 115.92 81.4328 115.784C81.7747 115.64 82.1439 115.568 82.5405 115.568C82.8892 115.568 83.2139 115.637 83.5148 115.773C83.8156 115.903 84.0755 116.085 84.2943 116.317C84.5199 116.55 84.6908 116.826 84.8071 117.148C84.9301 117.462 84.9883 117.808 84.9814 118.184L84.9712 118.635H80.5713L80.3354 117.794H84.0584L83.9045 117.968V117.722C83.884 117.497 83.8088 117.295 83.6789 117.117C83.549 116.939 83.3849 116.799 83.1866 116.697C82.9883 116.594 82.7729 116.543 82.5405 116.543C82.1712 116.543 81.8601 116.614 81.6071 116.758C81.3541 116.895 81.1627 117.1 81.0328 117.373C80.9029 117.64 80.8379 117.972 80.8379 118.368C80.8379 118.744 80.9166 119.073 81.0738 119.353C81.2311 119.626 81.4533 119.838 81.7405 119.989C82.0276 120.139 82.3593 120.214 82.7353 120.214C83.002 120.214 83.2481 120.17 83.4738 120.081C83.7062 119.992 83.9558 119.832 84.2225 119.599L84.7558 120.348C84.5917 120.512 84.39 120.655 84.1507 120.778C83.9182 120.902 83.6686 121.001 83.402 121.076C83.1421 121.144 82.8857 121.178 82.6328 121.178ZM86.1295 121.076V115.691H87.1859V116.799L87.0013 116.922C87.0696 116.683 87.203 116.464 87.4013 116.266C87.5995 116.061 87.8354 115.897 88.1089 115.773C88.3824 115.644 88.6628 115.579 88.9499 115.579C89.3602 115.579 89.7021 115.661 89.9756 115.825C90.2491 115.982 90.4542 116.225 90.5909 116.553C90.7277 116.881 90.7961 117.295 90.7961 117.794V121.076H89.7397V117.866C89.7397 117.558 89.6986 117.305 89.6166 117.107C89.5345 116.902 89.4081 116.755 89.2371 116.666C89.0662 116.57 88.8542 116.529 88.6012 116.543C88.3961 116.543 88.2081 116.577 88.0371 116.645C87.8662 116.707 87.7158 116.796 87.5859 116.912C87.4628 117.028 87.3636 117.165 87.2884 117.322C87.2201 117.473 87.1859 117.637 87.1859 117.814V121.076H86.6628C86.5739 121.076 86.485 121.076 86.3961 121.076C86.3073 121.076 86.2184 121.076 86.1295 121.076ZM95.3703 121.076V113.897H98.4267C98.8369 113.897 99.213 113.999 99.5549 114.204C99.9036 114.403 100.18 114.676 100.386 115.025C100.591 115.367 100.693 115.753 100.693 116.184C100.693 116.573 100.591 116.936 100.386 117.271C100.18 117.606 99.907 117.876 99.5651 118.081C99.2232 118.279 98.8438 118.379 98.4267 118.379H96.478V121.076H95.3703ZM99.6369 121.076L97.8113 117.835L98.9498 117.579L100.98 121.086L99.6369 121.076ZM96.478 117.312H98.5292C98.7275 117.312 98.9053 117.264 99.0626 117.168C99.2198 117.066 99.3429 116.929 99.4318 116.758C99.5207 116.58 99.5651 116.385 99.5651 116.173C99.5651 115.934 99.507 115.726 99.3908 115.548C99.2814 115.363 99.1241 115.22 98.919 115.117C98.7207 115.015 98.4951 114.963 98.2421 114.963H96.478V117.312ZM104.455 121.178C103.929 121.178 103.457 121.059 103.04 120.82C102.629 120.573 102.305 120.242 102.065 119.825C101.826 119.401 101.706 118.919 101.706 118.379C101.706 117.838 101.826 117.36 102.065 116.943C102.305 116.519 102.629 116.187 103.04 115.948C103.457 115.702 103.929 115.579 104.455 115.579C104.975 115.579 105.44 115.702 105.85 115.948C106.267 116.187 106.595 116.519 106.835 116.943C107.074 117.36 107.194 117.838 107.194 118.379C107.194 118.919 107.074 119.401 106.835 119.825C106.595 120.242 106.267 120.573 105.85 120.82C105.44 121.059 104.975 121.178 104.455 121.178ZM104.455 120.214C104.776 120.214 105.064 120.136 105.317 119.979C105.57 119.814 105.768 119.596 105.911 119.322C106.055 119.042 106.123 118.727 106.117 118.379C106.123 118.023 106.055 117.708 105.911 117.435C105.768 117.155 105.57 116.936 105.317 116.779C105.064 116.621 104.776 116.543 104.455 116.543C104.134 116.543 103.843 116.625 103.583 116.789C103.33 116.946 103.132 117.165 102.988 117.445C102.845 117.719 102.776 118.03 102.783 118.379C102.776 118.727 102.845 119.042 102.988 119.322C103.132 119.596 103.33 119.814 103.583 119.979C103.843 120.136 104.134 120.214 104.455 120.214ZM109.047 123.435L110.134 120.922L110.144 121.763L107.457 115.691H108.688L110.37 119.65C110.404 119.719 110.445 119.825 110.493 119.968C110.541 120.105 110.582 120.242 110.616 120.379L110.349 120.44C110.404 120.296 110.455 120.153 110.503 120.009C110.558 119.866 110.609 119.722 110.657 119.579L112.062 115.691H113.313L111.098 121.076L110.185 123.435H109.047Z" fill="white"/>
<path d="M187.033 118.282V116.83H190.836V118.282H187.033ZM195.366 121.199C194.627 121.199 193.979 121.064 193.421 120.793C192.863 120.522 192.387 120.124 191.994 119.599L192.941 118.356C193.36 118.898 193.766 119.275 194.16 119.489C194.553 119.702 194.997 119.809 195.489 119.809C195.768 119.809 196.022 119.767 196.252 119.685C196.482 119.595 196.662 119.476 196.793 119.329C196.925 119.173 196.99 118.996 196.99 118.799C196.99 118.66 196.962 118.533 196.904 118.418C196.855 118.295 196.777 118.188 196.67 118.098C196.564 117.999 196.432 117.909 196.277 117.827C196.121 117.745 195.944 117.675 195.747 117.618C195.55 117.56 195.333 117.507 195.095 117.458C194.488 117.335 193.983 117.158 193.581 116.929C193.187 116.691 192.892 116.395 192.695 116.042C192.498 115.69 192.4 115.275 192.4 114.799C192.4 114.438 192.478 114.106 192.634 113.802C192.798 113.499 193.019 113.236 193.298 113.015C193.577 112.793 193.901 112.621 194.27 112.498C194.64 112.375 195.038 112.313 195.464 112.313C196.137 112.313 196.732 112.436 197.249 112.682C197.766 112.92 198.192 113.277 198.529 113.753L197.618 114.861C197.339 114.483 197.015 114.2 196.646 114.012C196.285 113.815 195.891 113.716 195.464 113.716C195.169 113.716 194.91 113.757 194.689 113.839C194.476 113.921 194.307 114.04 194.184 114.196C194.061 114.344 194 114.525 194 114.738C194 114.902 194.037 115.05 194.11 115.181C194.184 115.304 194.287 115.415 194.418 115.513C194.558 115.612 194.734 115.698 194.947 115.772C195.161 115.846 195.403 115.911 195.673 115.969C196.125 116.059 196.531 116.182 196.892 116.338C197.253 116.485 197.561 116.666 197.815 116.879C198.069 117.084 198.262 117.322 198.393 117.593C198.525 117.856 198.59 118.151 198.59 118.479C198.59 119.045 198.455 119.534 198.184 119.944C197.922 120.346 197.548 120.658 197.064 120.879C196.58 121.093 196.014 121.199 195.366 121.199ZM194.627 122.196L194.677 116.559L195.797 116.965L195.846 122.196H194.627ZM196.227 116.965L195.107 116.559L195.058 111.427H196.277L196.227 116.965ZM202.737 121.076C202.302 121.076 201.896 120.998 201.519 120.842C201.149 120.686 200.825 120.473 200.546 120.202C200.276 119.923 200.062 119.599 199.906 119.23C199.75 118.861 199.673 118.455 199.673 118.012C199.673 117.765 199.701 117.503 199.759 117.224C199.824 116.945 199.919 116.65 200.042 116.338C200.173 116.018 200.325 115.686 200.497 115.341C200.669 114.996 200.87 114.635 201.1 114.258L202.245 112.313H203.771L203.82 112.436L202.356 114.849C202.118 115.242 201.908 115.616 201.728 115.969C201.547 116.313 201.391 116.645 201.26 116.965C201.137 117.277 201.035 117.581 200.952 117.876L200.62 116.756C200.743 116.494 200.895 116.256 201.076 116.042C201.256 115.829 201.457 115.649 201.679 115.501C201.9 115.353 202.13 115.242 202.368 115.169C202.614 115.095 202.864 115.058 203.119 115.058C203.594 115.058 204.033 115.189 204.436 115.452C204.838 115.706 205.158 116.047 205.395 116.473C205.642 116.9 205.765 117.368 205.765 117.876C205.765 118.492 205.633 119.041 205.371 119.525C205.117 120.001 204.76 120.379 204.3 120.658C203.841 120.937 203.32 121.076 202.737 121.076ZM202.749 119.673C203.045 119.673 203.307 119.603 203.537 119.464C203.775 119.324 203.96 119.132 204.091 118.885C204.222 118.631 204.288 118.34 204.288 118.012C204.288 117.733 204.218 117.474 204.079 117.236C203.947 116.99 203.767 116.793 203.537 116.645C203.307 116.49 203.049 116.412 202.762 116.412C202.45 116.412 202.171 116.485 201.925 116.633C201.687 116.773 201.498 116.965 201.359 117.212C201.227 117.45 201.162 117.716 201.162 118.012C201.162 118.323 201.227 118.606 201.359 118.861C201.498 119.107 201.687 119.304 201.925 119.452C202.163 119.599 202.438 119.673 202.749 119.673ZM209.758 121.113C209.208 121.113 208.703 121.002 208.244 120.781C207.793 120.551 207.432 120.247 207.161 119.87C206.89 119.484 206.755 119.058 206.755 118.59C206.755 118.311 206.792 118.053 206.865 117.815C206.947 117.577 207.062 117.363 207.21 117.175C207.366 116.986 207.55 116.818 207.764 116.67C207.985 116.514 208.236 116.379 208.515 116.264L208.416 116.609C208.203 116.518 208.006 116.412 207.825 116.289C207.653 116.165 207.501 116.026 207.37 115.87C207.247 115.706 207.153 115.534 207.087 115.353C207.021 115.164 206.988 114.968 206.988 114.762C206.988 114.319 207.112 113.921 207.358 113.569C207.612 113.216 207.948 112.937 208.367 112.732C208.785 112.518 209.249 112.412 209.758 112.412C210.275 112.412 210.742 112.518 211.161 112.732C211.579 112.937 211.911 113.216 212.158 113.569C212.412 113.921 212.539 114.319 212.539 114.762C212.539 114.968 212.506 115.164 212.441 115.353C212.375 115.534 212.281 115.702 212.158 115.858C212.043 116.005 211.895 116.145 211.714 116.276C211.534 116.399 211.325 116.51 211.087 116.609L211.025 116.313C211.288 116.403 211.526 116.522 211.739 116.67C211.952 116.818 212.137 116.99 212.293 117.187C212.449 117.384 212.568 117.601 212.65 117.839C212.74 118.077 212.785 118.328 212.785 118.59C212.785 119.066 212.65 119.497 212.379 119.882C212.108 120.26 211.743 120.559 211.284 120.781C210.832 121.002 210.324 121.113 209.758 121.113ZM209.758 119.735C210.037 119.735 210.287 119.681 210.508 119.575C210.73 119.468 210.902 119.324 211.025 119.144C211.157 118.963 211.222 118.754 211.222 118.516C211.222 118.262 211.157 118.04 211.025 117.852C210.902 117.655 210.73 117.503 210.508 117.396C210.287 117.281 210.037 117.224 209.758 117.224C209.487 117.224 209.241 117.281 209.019 117.396C208.806 117.503 208.634 117.655 208.502 117.852C208.371 118.04 208.305 118.262 208.305 118.516C208.305 118.746 208.371 118.951 208.502 119.132C208.634 119.312 208.806 119.46 209.019 119.575C209.241 119.681 209.487 119.735 209.758 119.735ZM209.758 115.87C210.004 115.87 210.221 115.825 210.41 115.735C210.607 115.644 210.759 115.521 210.865 115.366C210.972 115.21 211.025 115.029 211.025 114.824C211.025 114.611 210.972 114.426 210.865 114.27C210.759 114.106 210.607 113.979 210.41 113.889C210.221 113.79 210.004 113.741 209.758 113.741C209.52 113.741 209.302 113.79 209.105 113.889C208.917 113.979 208.769 114.106 208.662 114.27C208.556 114.426 208.502 114.611 208.502 114.824C208.502 115.029 208.556 115.21 208.662 115.366C208.769 115.521 208.917 115.644 209.105 115.735C209.302 115.825 209.52 115.87 209.758 115.87ZM214.84 121.212C214.544 121.212 214.315 121.125 214.151 120.953C213.995 120.781 213.917 120.539 213.917 120.227C213.917 119.94 213.999 119.706 214.163 119.525C214.335 119.337 214.561 119.242 214.84 119.242C215.135 119.242 215.361 119.329 215.517 119.501C215.681 119.665 215.763 119.907 215.763 120.227C215.763 120.514 215.677 120.752 215.504 120.941C215.34 121.121 215.119 121.212 214.84 121.212ZM220.185 121.199C219.487 121.199 218.888 121.023 218.388 120.67C217.896 120.309 217.514 119.8 217.243 119.144C216.981 118.479 216.849 117.688 216.849 116.769C216.849 115.85 216.981 115.062 217.243 114.406C217.514 113.741 217.896 113.232 218.388 112.879C218.888 112.518 219.487 112.338 220.185 112.338C220.882 112.338 221.481 112.518 221.982 112.879C222.482 113.232 222.864 113.741 223.126 114.406C223.397 115.062 223.532 115.85 223.532 116.769C223.532 117.688 223.397 118.479 223.126 119.144C222.864 119.8 222.482 120.309 221.982 120.67C221.481 121.023 220.882 121.199 220.185 121.199ZM220.185 119.796C220.759 119.796 221.202 119.534 221.514 119.009C221.834 118.475 221.994 117.729 221.994 116.769C221.994 115.8 221.834 115.05 221.514 114.516C221.202 113.983 220.759 113.716 220.185 113.716C219.61 113.716 219.163 113.983 218.843 114.516C218.531 115.05 218.376 115.8 218.376 116.769C218.376 117.729 218.531 118.475 218.843 119.009C219.163 119.534 219.61 119.796 220.185 119.796ZM227.949 121.199C227.252 121.199 226.653 121.023 226.152 120.67C225.66 120.309 225.278 119.8 225.008 119.144C224.745 118.479 224.614 117.688 224.614 116.769C224.614 115.85 224.745 115.062 225.008 114.406C225.278 113.741 225.66 113.232 226.152 112.879C226.653 112.518 227.252 112.338 227.949 112.338C228.646 112.338 229.245 112.518 229.746 112.879C230.246 113.232 230.628 113.741 230.89 114.406C231.161 115.062 231.297 115.85 231.297 116.769C231.297 117.688 231.161 118.479 230.89 119.144C230.628 119.8 230.246 120.309 229.746 120.67C229.245 121.023 228.646 121.199 227.949 121.199ZM227.949 119.796C228.523 119.796 228.966 119.534 229.278 119.009C229.598 118.475 229.758 117.729 229.758 116.769C229.758 115.8 229.598 115.05 229.278 114.516C228.966 113.983 228.523 113.716 227.949 113.716C227.375 113.716 226.927 113.983 226.607 114.516C226.296 115.05 226.14 115.8 226.14 116.769C226.14 117.729 226.296 118.475 226.607 119.009C226.927 119.534 227.375 119.796 227.949 119.796Z" fill="white"/>
</g>
<g opacity="0.5">
<rect x="11.3004" y="57.0762" width="243.4" height="44.8971" rx="5.89732" fill="#1C1C1C"/>
<rect x="11.3004" y="57.0762" width="243.4" height="44.8971" rx="5.89732" stroke="#262626" stroke-width="0.512811"/>
<rect x="23.3516" y="68.26" width="22.5976" height="22.5298" rx="11.2649" fill="#CAFF33"/>
<path fill-rule="evenodd" clip-rule="evenodd" d="M36.6243 74.7623C36.4504 74.9486 36.4613 75.2398 36.6486 75.4128L37.9447 76.6097L32.644 76.6097C32.3884 76.6097 32.1812 76.8158 32.1812 77.07C32.1812 77.3241 32.3884 77.5302 32.644 77.5302L37.9447 77.5302L36.6486 78.7271C36.4613 78.9001 36.4504 79.1913 36.6243 79.3776C36.7983 79.5639 37.0911 79.5747 37.2784 79.4017L39.4381 77.4072C39.5324 77.3201 39.586 77.1979 39.586 77.07C39.586 76.942 39.5324 76.8198 39.4381 76.7327L37.2784 74.7382C37.0911 74.5653 36.7983 74.576 36.6243 74.7623ZM32.6746 79.6717C32.5007 79.4855 32.2078 79.4747 32.0205 79.6477L29.8608 81.6421C29.7665 81.7292 29.7129 81.8514 29.7129 81.9794C29.7129 82.1074 29.7665 82.2296 29.8608 82.3167L32.0205 84.3111C32.2078 84.4841 32.5007 84.4733 32.6746 84.287C32.8485 84.1008 32.8377 83.8095 32.6504 83.6366L31.3542 82.4396H36.6549C36.9105 82.4396 37.1177 82.2336 37.1177 81.9794C37.1177 81.7252 36.9105 81.5191 36.6549 81.5191H31.3542L32.6504 80.3222C32.8377 80.1492 32.8485 79.858 32.6746 79.6717Z" fill="#1C1C1C"/>
<path d="M53.2002 75.0249V69.265H51.3541V68.5635H55.8401V69.265H53.9202V75.0249H53.2002ZM56.2311 75.0249V70.2065H56.9234L56.9418 71.4896L56.868 71.3142C56.9357 71.0988 57.0434 70.8988 57.191 70.7142C57.3449 70.5296 57.5264 70.3819 57.7357 70.2711C57.9449 70.1604 58.1756 70.105 58.4279 70.105C58.5326 70.105 58.631 70.1142 58.7233 70.1327C58.8156 70.145 58.8926 70.1635 58.9541 70.1881L58.7602 70.9634C58.6802 70.9265 58.5972 70.9019 58.511 70.8896C58.431 70.8711 58.3541 70.8619 58.2803 70.8619C58.071 70.8619 57.8833 70.8988 57.7172 70.9727C57.551 71.0465 57.4095 71.1511 57.2926 71.2865C57.1757 71.4157 57.0864 71.5665 57.0249 71.7388C56.9634 71.9111 56.9326 72.0957 56.9326 72.2926V75.0249H56.2311ZM61.3502 75.1172C60.9318 75.1172 60.5533 75.0095 60.2149 74.7941C59.8764 74.5726 59.6087 74.2741 59.4118 73.8988C59.2149 73.5172 59.1164 73.0865 59.1164 72.6065C59.1164 72.1203 59.218 71.6896 59.421 71.3142C59.6241 70.9388 59.8949 70.6434 60.2333 70.4281C60.5779 70.2127 60.9625 70.105 61.3871 70.105C61.6394 70.105 61.8733 70.1419 62.0887 70.2158C62.304 70.2896 62.4948 70.3942 62.661 70.5296C62.8333 70.6588 62.9748 70.8127 63.0856 70.9911C63.2025 71.1634 63.2825 71.3511 63.3256 71.5542L63.1225 71.4527L63.1502 70.2065H63.8425V75.0249H63.141V73.8434L63.3256 73.7234C63.2825 73.908 63.1994 74.0865 63.0763 74.2588C62.9533 74.4249 62.8025 74.5726 62.624 74.7018C62.4517 74.8311 62.2548 74.9326 62.0333 75.0064C61.8179 75.0803 61.5902 75.1172 61.3502 75.1172ZM61.5071 74.4526C61.8271 74.4526 62.1133 74.3757 62.3656 74.2218C62.6179 74.0618 62.8148 73.8434 62.9563 73.5665C63.104 73.2834 63.1779 72.9634 63.1779 72.6065C63.1779 72.2496 63.104 71.9327 62.9563 71.6557C62.8148 71.3788 62.6179 71.1604 62.3656 71.0004C62.1133 70.8404 61.8271 70.7604 61.5071 70.7604C61.181 70.7604 60.8918 70.8404 60.6395 71.0004C60.3933 71.1604 60.1964 71.3788 60.0487 71.6557C59.9072 71.9327 59.8364 72.2496 59.8364 72.6065C59.8364 72.9572 59.9072 73.2742 60.0487 73.5572C60.1902 73.8342 60.3872 74.0526 60.6395 74.2126C60.8918 74.3726 61.181 74.4526 61.5071 74.4526ZM65.1912 75.0249V70.2065H65.8743L65.902 71.2127L65.7912 71.2588C65.8528 71.0496 65.9728 70.8588 66.1512 70.6865C66.3297 70.5142 66.542 70.3758 66.7881 70.2711C67.0404 70.1604 67.2989 70.105 67.5635 70.105C67.9204 70.105 68.2189 70.1758 68.4589 70.3173C68.6989 70.4588 68.8804 70.6773 69.0035 70.9727C69.1265 71.2681 69.1881 71.6434 69.1881 72.0988V75.0249H68.4865V72.1357C68.4865 71.8157 68.4435 71.5542 68.3573 71.3511C68.2773 71.1419 68.1512 70.9881 67.9789 70.8896C67.8066 70.7911 67.5943 70.745 67.342 70.7511C67.1327 70.7511 66.9389 70.7881 66.7604 70.8619C66.582 70.9296 66.4281 71.025 66.2989 71.1481C66.1697 71.2711 66.0681 71.4127 65.9943 71.5727C65.9204 71.7327 65.8835 71.905 65.8835 72.0896V75.0249H65.542C65.4989 75.0249 65.4497 75.0249 65.3943 75.0249C65.3389 75.0249 65.2712 75.0249 65.1912 75.0249ZM72.0881 75.1172C71.6758 75.1172 71.3065 75.0403 70.9804 74.8864C70.6542 74.7326 70.3958 74.5295 70.205 74.2772L70.6942 73.8526C70.8727 74.068 71.0819 74.2311 71.3219 74.3418C71.5681 74.4526 71.8419 74.508 72.1435 74.508C72.2973 74.508 72.4358 74.4926 72.5588 74.4618C72.6819 74.4249 72.7896 74.3726 72.8819 74.3049C72.9742 74.2372 73.045 74.1572 73.0942 74.0649C73.1434 73.9726 73.168 73.8711 73.168 73.7603C73.168 73.5572 73.0788 73.388 72.9004 73.2526C72.8204 73.1972 72.7065 73.1419 72.5588 73.0865C72.4111 73.0249 72.2327 72.9665 72.0235 72.9111C71.6788 72.8126 71.3927 72.7142 71.165 72.6157C70.9373 72.5111 70.7589 72.3911 70.6296 72.2557C70.5373 72.145 70.4666 72.025 70.4173 71.8957C70.3743 71.7665 70.3527 71.625 70.3527 71.4711C70.3527 71.2742 70.3927 71.0927 70.4727 70.9265C70.5589 70.7604 70.6758 70.6158 70.8235 70.4927C70.9773 70.3635 71.1558 70.2681 71.3588 70.2065C71.5681 70.1388 71.7927 70.105 72.0327 70.105C72.2604 70.105 72.485 70.1358 72.7065 70.1973C72.9281 70.2588 73.1342 70.3481 73.325 70.465C73.5157 70.5819 73.6788 70.7204 73.8142 70.8804L73.3896 71.3419C73.2727 71.2188 73.1434 71.1081 73.0019 71.0096C72.8604 70.9111 72.7096 70.8342 72.5496 70.7788C72.3958 70.7234 72.2358 70.6958 72.0696 70.6958C71.9219 70.6958 71.7835 70.7142 71.6542 70.7511C71.5312 70.7881 71.4235 70.8404 71.3312 70.9081C71.245 70.9696 71.1773 71.0465 71.1281 71.1388C71.085 71.2311 71.0635 71.3327 71.0635 71.4434C71.0635 71.5357 71.0819 71.6188 71.1189 71.6927C71.1558 71.7665 71.2081 71.8311 71.2758 71.8865C71.3619 71.9542 71.4819 72.0188 71.6358 72.0803C71.7958 72.1357 71.9927 72.1942 72.2265 72.2557C72.4973 72.3296 72.725 72.4065 72.9096 72.4865C73.1004 72.5603 73.2573 72.6496 73.3803 72.7542C73.5465 72.8773 73.6634 73.0188 73.7311 73.1788C73.805 73.3388 73.8419 73.5203 73.8419 73.7234C73.8419 73.9942 73.765 74.2341 73.6111 74.4434C73.4634 74.6526 73.2573 74.8188 72.9927 74.9418C72.7281 75.0587 72.4265 75.1172 72.0881 75.1172ZM76.8097 75.1172C76.3912 75.1172 76.0128 75.0095 75.6743 74.7941C75.3358 74.5726 75.0682 74.2741 74.8712 73.8988C74.6743 73.5172 74.5759 73.0865 74.5759 72.6065C74.5759 72.1203 74.6774 71.6896 74.8805 71.3142C75.0835 70.9388 75.3543 70.6434 75.6928 70.4281C76.0374 70.2127 76.422 70.105 76.8466 70.105C77.0989 70.105 77.3327 70.1419 77.5481 70.2158C77.7635 70.2896 77.9543 70.3942 78.1204 70.5296C78.2927 70.6588 78.4342 70.8127 78.545 70.9911C78.6619 71.1634 78.7419 71.3511 78.785 71.5542L78.5819 71.4527L78.6096 70.2065H79.3019V75.0249H78.6004V73.8434L78.785 73.7234C78.7419 73.908 78.6589 74.0865 78.5358 74.2588C78.4127 74.4249 78.2619 74.5726 78.0835 74.7018C77.9112 74.8311 77.7143 74.9326 77.4927 75.0064C77.2773 75.0803 77.0497 75.1172 76.8097 75.1172ZM76.9666 74.4526C77.2866 74.4526 77.5727 74.3757 77.825 74.2218C78.0773 74.0618 78.2742 73.8434 78.4158 73.5665C78.5635 73.2834 78.6373 72.9634 78.6373 72.6065C78.6373 72.2496 78.5635 71.9327 78.4158 71.6557C78.2742 71.3788 78.0773 71.1604 77.825 71.0004C77.5727 70.8404 77.2866 70.7604 76.9666 70.7604C76.6404 70.7604 76.3512 70.8404 76.0989 71.0004C75.8528 71.1604 75.6558 71.3788 75.5081 71.6557C75.3666 71.9327 75.2958 72.2496 75.2958 72.6065C75.2958 72.9572 75.3666 73.2742 75.5081 73.5572C75.6497 73.8342 75.8466 74.0526 76.0989 74.2126C76.3512 74.3726 76.6404 74.4526 76.9666 74.4526ZM82.6814 75.1172C82.226 75.1172 81.8199 75.0095 81.463 74.7941C81.106 74.5726 80.823 74.2741 80.6137 73.8988C80.4107 73.5172 80.3091 73.0865 80.3091 72.6065C80.3091 72.1265 80.4107 71.6988 80.6137 71.3234C80.823 70.9419 81.106 70.6434 81.463 70.4281C81.8199 70.2127 82.2291 70.105 82.6906 70.105C83.1029 70.105 83.4783 70.1881 83.8168 70.3542C84.1552 70.5142 84.426 70.7388 84.6291 71.0281L84.2229 71.5265C84.106 71.3727 83.9644 71.2373 83.7983 71.1204C83.6383 71.0034 83.4629 70.9142 83.2722 70.8527C83.0875 70.785 82.9029 70.7511 82.7183 70.7511C82.3922 70.7511 82.0999 70.8342 81.8414 71.0004C81.583 71.1604 81.3768 71.3788 81.223 71.6557C81.0753 71.9327 81.0014 72.2496 81.0014 72.6065C81.0014 72.9634 81.0753 73.2834 81.223 73.5665C81.3768 73.8434 81.583 74.0618 81.8414 74.2218C82.0999 74.3818 82.3891 74.4618 82.7091 74.4618C82.8937 74.4618 83.0752 74.4341 83.2537 74.3788C83.4322 74.3172 83.6014 74.2311 83.7614 74.1203C83.9214 74.0095 84.0691 73.8711 84.2044 73.7049L84.6106 74.2034C84.4014 74.4803 84.1214 74.7018 83.7706 74.868C83.4198 75.0341 83.0568 75.1172 82.6814 75.1172ZM86.1739 75.0249V68.9419H86.8662V75.0249H86.1739ZM85.0847 70.8711V70.2065H88.0847V70.8711H85.0847ZM89.1194 75.0249V70.2065H89.8117V75.0249H89.1194ZM89.4609 69.1635C89.2886 69.1635 89.1563 69.1204 89.064 69.0342C88.9778 68.9419 88.9348 68.8189 88.9348 68.665C88.9348 68.5112 88.9809 68.3881 89.0732 68.2958C89.1655 68.2035 89.2948 68.1573 89.4609 68.1573C89.6271 68.1573 89.7563 68.2035 89.8486 68.2958C89.9409 68.382 89.987 68.505 89.987 68.665C89.987 68.8127 89.9409 68.9327 89.8486 69.025C89.7563 69.1173 89.6271 69.1635 89.4609 69.1635ZM93.4558 75.1172C92.9758 75.1172 92.5481 75.0095 92.1728 74.7941C91.8035 74.5788 91.5112 74.2803 91.2958 73.8988C91.0866 73.5172 90.982 73.0834 90.982 72.5973C90.982 72.1173 91.0866 71.6896 91.2958 71.3142C91.5112 70.9388 91.8035 70.6434 92.1728 70.4281C92.5481 70.2127 92.9758 70.105 93.4558 70.105C93.9296 70.105 94.3512 70.2127 94.7204 70.4281C95.0958 70.6434 95.3881 70.9388 95.5973 71.3142C95.8127 71.6896 95.9204 72.1173 95.9204 72.5973C95.9204 73.0834 95.8127 73.5172 95.5973 73.8988C95.3881 74.2803 95.0958 74.5788 94.7204 74.7941C94.3512 75.0095 93.9296 75.1172 93.4558 75.1172ZM93.4558 74.4618C93.7943 74.4618 94.0958 74.3818 94.3604 74.2218C94.625 74.0557 94.8312 73.8342 94.9789 73.5572C95.1265 73.2742 95.2004 72.9542 95.2004 72.5973C95.2004 72.2403 95.1265 71.9234 94.9789 71.6465C94.8312 71.3696 94.625 71.1542 94.3604 71.0004C94.0958 70.8404 93.7943 70.7604 93.4558 70.7604C93.1173 70.7604 92.8127 70.8404 92.542 71.0004C92.2774 71.1542 92.0681 71.3727 91.9143 71.6557C91.7666 71.9327 91.6958 72.2465 91.702 72.5973C91.6958 72.9542 91.7666 73.2742 91.9143 73.5572C92.0681 73.8342 92.2774 74.0557 92.542 74.2218C92.8127 74.3818 93.1173 74.4618 93.4558 74.4618ZM96.9304 75.0249V70.2065H97.6135L97.6412 71.2127L97.5304 71.2588C97.5919 71.0496 97.7119 70.8588 97.8904 70.6865C98.0688 70.5142 98.2811 70.3758 98.5273 70.2711C98.7796 70.1604 99.0381 70.105 99.3027 70.105C99.6596 70.105 99.958 70.1758 100.198 70.3173C100.438 70.4588 100.62 70.6773 100.743 70.9727C100.866 71.2681 100.927 71.6434 100.927 72.0988V75.0249H100.226V72.1357C100.226 71.8157 100.183 71.5542 100.096 71.3511C100.016 71.1419 99.8903 70.9881 99.718 70.8896C99.5457 70.7911 99.3334 70.745 99.0811 70.7511C98.8719 70.7511 98.6781 70.7881 98.4996 70.8619C98.3211 70.9296 98.1673 71.025 98.0381 71.1481C97.9088 71.2711 97.8073 71.4127 97.7335 71.5727C97.6596 71.7327 97.6227 71.905 97.6227 72.0896V75.0249H97.2812C97.2381 75.0249 97.1889 75.0249 97.1335 75.0249C97.0781 75.0249 97.0104 75.0249 96.9304 75.0249Z" fill="white"/>
<path d="M52.0823 90.0249V82.8456H53.1694L55.7848 87.1019L55.2617 87.0916L57.9078 82.8456H58.9334V90.0249H57.8257V87.0814C57.8257 86.466 57.8394 85.9122 57.8668 85.4199C57.9009 84.9276 57.9556 84.4387 58.0309 83.9532L58.1744 84.3327L55.8258 87.9634H55.1489L52.872 84.3737L52.9848 83.9532C53.06 84.4113 53.1113 84.8831 53.1386 85.3686C53.1728 85.8472 53.1899 86.4181 53.1899 87.0814V90.0249H52.0823ZM62.7514 90.1275C62.3069 90.1275 61.9001 90.0044 61.5309 89.7582C61.1685 89.5121 60.8779 89.1771 60.6591 88.7531C60.4403 88.3292 60.3309 87.8506 60.3309 87.3173C60.3309 86.7771 60.4403 86.2985 60.6591 85.8814C60.8847 85.4575 61.1856 85.1259 61.5616 84.8865C61.9445 84.6472 62.3719 84.5276 62.8437 84.5276C63.124 84.5276 63.3804 84.5686 63.6129 84.6506C63.8454 84.7327 64.0471 84.8489 64.218 84.9994C64.3958 85.1429 64.5394 85.3105 64.6488 85.5019C64.765 85.6934 64.8368 85.8985 64.8641 86.1173L64.6282 86.0352V84.6404H65.6949V90.0249H64.6282V88.7429L64.8744 88.6711C64.8334 88.8557 64.7479 89.0369 64.618 89.2147C64.4949 89.3856 64.3342 89.5394 64.136 89.6762C63.9445 89.8129 63.7291 89.9223 63.4898 90.0044C63.2573 90.0864 63.0112 90.1275 62.7514 90.1275ZM63.0283 89.1531C63.3496 89.1531 63.6334 89.0745 63.8795 88.9172C64.1257 88.76 64.3171 88.5446 64.4539 88.2711C64.5975 87.9908 64.6693 87.6728 64.6693 87.3173C64.6693 86.9686 64.5975 86.6574 64.4539 86.3839C64.3171 86.1104 64.1257 85.8951 63.8795 85.7378C63.6334 85.5805 63.3496 85.5019 63.0283 85.5019C62.7138 85.5019 62.4334 85.5805 62.1873 85.7378C61.948 85.8951 61.7565 86.1104 61.6129 86.3839C61.4762 86.6574 61.4078 86.9686 61.4078 87.3173C61.4078 87.6728 61.4762 87.9908 61.6129 88.2711C61.7565 88.5446 61.948 88.76 62.1873 88.9172C62.4334 89.0745 62.7138 89.1531 63.0283 89.1531ZM67.1699 90.0249V84.6404H68.2365V86.3327L68.134 85.9224C68.2092 85.6626 68.3357 85.4267 68.5134 85.2147C68.698 85.0028 68.9066 84.8353 69.1391 84.7122C69.3784 84.5891 69.6245 84.5276 69.8775 84.5276C69.9937 84.5276 70.1031 84.5378 70.2057 84.5583C70.3151 84.5789 70.4006 84.6028 70.4621 84.6301L70.1852 85.7788C70.1031 85.7446 70.0108 85.7173 69.9083 85.6968C69.8126 85.6694 69.7168 85.6558 69.6211 85.6558C69.4365 85.6558 69.2587 85.6934 69.0878 85.7686C68.9237 85.8369 68.7767 85.9361 68.6468 86.066C68.5237 86.1891 68.4245 86.3361 68.3493 86.507C68.2741 86.6711 68.2365 86.8523 68.2365 87.0506V90.0249H67.1699ZM72.2705 88.3429L72.2192 87.1942L74.7935 84.6404H76.2191L72.2705 88.3429ZM71.3064 90.0249V82.4353H72.3628V90.0249H71.3064ZM74.9371 90.0249L72.9064 87.6557L73.6551 86.9686L76.2909 90.0249H74.9371ZM82.4922 90.1275C82.1024 90.1275 81.74 90.0762 81.405 89.9736C81.0768 89.8711 80.776 89.7172 80.5025 89.5121C80.2358 89.3001 79.9965 89.0403 79.7845 88.7326L80.5435 87.8608C80.8785 88.3395 81.1999 88.6711 81.5076 88.8557C81.8153 89.0403 82.1811 89.1326 82.605 89.1326C82.8648 89.1326 83.1007 89.0916 83.3127 89.0095C83.5246 88.9275 83.6921 88.8147 83.8152 88.6711C83.9383 88.5275 83.9998 88.3634 83.9998 88.1788C83.9998 88.0557 83.9793 87.9395 83.9383 87.8301C83.8973 87.7207 83.8323 87.6215 83.7434 87.5326C83.6614 87.4438 83.552 87.3617 83.4152 87.2865C83.2853 87.2113 83.1315 87.1463 82.9537 87.0916C82.7759 87.0301 82.5708 86.9788 82.3383 86.9378C81.9691 86.8626 81.6477 86.7634 81.3742 86.6404C81.1007 86.5173 80.8717 86.3634 80.6871 86.1788C80.5025 85.9942 80.3657 85.7857 80.2768 85.5532C80.1879 85.3139 80.1435 85.0472 80.1435 84.7532C80.1435 84.466 80.205 84.1994 80.3281 83.9532C80.458 83.7071 80.6324 83.4951 80.8512 83.3173C81.0768 83.1327 81.3401 82.9926 81.6409 82.8968C81.9418 82.7943 82.2665 82.743 82.6152 82.743C82.9845 82.743 83.3229 82.7909 83.6306 82.8866C83.9383 82.9823 84.2118 83.1259 84.4511 83.3173C84.6904 83.502 84.8887 83.731 85.046 84.0045L84.2665 84.7737C84.1297 84.5481 83.9759 84.3601 83.805 84.2096C83.634 84.0524 83.446 83.9361 83.2409 83.8609C83.0357 83.7789 82.8169 83.7378 82.5845 83.7378C82.3178 83.7378 82.0853 83.7789 81.8871 83.8609C81.6888 83.943 81.5315 84.0592 81.4153 84.2096C81.3059 84.3532 81.2512 84.5242 81.2512 84.7224C81.2512 84.866 81.2785 84.9994 81.3332 85.1224C81.3879 85.2387 81.47 85.3447 81.5794 85.4404C81.6956 85.5293 81.8494 85.6113 82.0409 85.6865C82.2323 85.7549 82.4614 85.8164 82.7281 85.8711C83.1041 85.9532 83.4392 86.0592 83.7332 86.1891C84.0272 86.3122 84.2767 86.4592 84.4819 86.6301C84.687 86.801 84.8408 86.9925 84.9434 87.2044C85.0528 87.4164 85.1075 87.6455 85.1075 87.8916C85.1075 88.3497 85.0015 88.7463 84.7896 89.0813C84.5776 89.4164 84.2767 89.6762 83.887 89.8608C83.4973 90.0386 83.0323 90.1275 82.4922 90.1275ZM86.3898 90.0249V84.6404H87.4564V85.7891L87.2615 85.9122C87.3162 85.7344 87.4017 85.5634 87.518 85.3994C87.641 85.2353 87.788 85.0917 87.959 84.9686C88.1367 84.8387 88.3248 84.7361 88.5231 84.6609C88.7282 84.5857 88.9367 84.5481 89.1487 84.5481C89.4564 84.5481 89.7265 84.5994 89.9589 84.7019C90.1914 84.8045 90.3829 84.9583 90.5333 85.1635C90.6837 85.3686 90.7931 85.625 90.8615 85.9327L90.6974 85.8916L90.7692 85.7173C90.8444 85.56 90.9469 85.413 91.0769 85.2763C91.2136 85.1327 91.3675 85.0062 91.5384 84.8968C91.7093 84.7874 91.8905 84.7019 92.082 84.6404C92.2734 84.5789 92.4614 84.5481 92.6461 84.5481C93.0495 84.5481 93.3811 84.6301 93.6409 84.7942C93.9076 84.9583 94.1059 85.2079 94.2358 85.5429C94.3725 85.878 94.4409 86.2951 94.4409 86.7942V90.0249H93.3742V86.8557C93.3742 86.548 93.3332 86.2985 93.2512 86.107C93.176 85.9087 93.0597 85.7617 92.9025 85.666C92.7452 85.5703 92.5435 85.5224 92.2973 85.5224C92.1059 85.5224 91.9247 85.5566 91.7538 85.625C91.5897 85.6865 91.4461 85.7754 91.323 85.8916C91.1999 86.0079 91.1042 86.1446 91.0358 86.3019C90.9675 86.4523 90.9333 86.6198 90.9333 86.8045V90.0249H89.8666V86.8352C89.8666 86.5549 89.8256 86.319 89.7435 86.1275C89.6615 85.9293 89.5418 85.7788 89.3846 85.6763C89.2273 85.5737 89.0359 85.5224 88.8102 85.5224C88.6188 85.5224 88.441 85.5566 88.2769 85.625C88.1128 85.6865 87.9692 85.7754 87.8462 85.8916C87.7231 86.001 87.6274 86.1344 87.559 86.2916C87.4906 86.4421 87.4564 86.6062 87.4564 86.7839V90.0249H86.3898ZM96.0296 90.0249V84.6404H97.086V90.0249H96.0296ZM96.5424 83.4507C96.3167 83.4507 96.1424 83.3926 96.0193 83.2763C95.8962 83.1601 95.8347 82.996 95.8347 82.784C95.8347 82.5857 95.8962 82.425 96.0193 82.302C96.1492 82.1789 96.3236 82.1174 96.5424 82.1174C96.768 82.1174 96.9424 82.1755 97.0654 82.2917C97.1885 82.408 97.2501 82.5721 97.2501 82.784C97.2501 82.9823 97.1851 83.143 97.0552 83.2661C96.9321 83.3891 96.7612 83.4507 96.5424 83.4507ZM99.3764 90.0249V83.2661H100.433V90.0249H99.3764ZM98.2584 85.666V84.6404H101.684V85.666H98.2584ZM102.646 90.0249V82.4353H103.702V85.7481L103.518 85.8711C103.586 85.6318 103.719 85.413 103.918 85.2147C104.116 85.0096 104.352 84.8455 104.625 84.7224C104.899 84.5925 105.179 84.5276 105.466 84.5276C105.877 84.5276 106.219 84.6096 106.492 84.7737C106.766 84.931 106.971 85.1737 107.107 85.5019C107.244 85.8301 107.313 86.2438 107.313 86.7429V90.0249H106.256V86.8147C106.256 86.507 106.215 86.254 106.133 86.0557C106.051 85.8506 105.925 85.7036 105.754 85.6147C105.583 85.519 105.371 85.478 105.118 85.4917C104.913 85.4917 104.725 85.5258 104.554 85.5942C104.383 85.6558 104.232 85.7446 104.102 85.8609C103.979 85.9771 103.88 86.1139 103.805 86.2711C103.737 86.4216 103.702 86.5857 103.702 86.7634V90.0249H103.179C103.09 90.0249 103.001 90.0249 102.913 90.0249C102.824 90.0249 102.735 90.0249 102.646 90.0249Z" fill="white"/>
<path d="M197.289 87.2311V85.7788H201.092V87.2311H197.289ZM205.623 90.148C204.884 90.148 204.236 90.0126 203.678 89.7418C203.12 89.4711 202.644 89.0731 202.25 88.548L203.198 87.305C203.616 87.8465 204.023 88.2239 204.416 88.4372C204.81 88.6506 205.253 88.7572 205.746 88.7572C206.025 88.7572 206.279 88.7162 206.509 88.6342C206.738 88.5439 206.919 88.4249 207.05 88.2772C207.182 88.1213 207.247 87.9449 207.247 87.748C207.247 87.6085 207.218 87.4814 207.161 87.3665C207.112 87.2434 207.034 87.1368 206.927 87.0465C206.821 86.948 206.689 86.8578 206.533 86.7757C206.377 86.6937 206.201 86.6239 206.004 86.5665C205.807 86.5091 205.59 86.4557 205.352 86.4065C204.745 86.2834 204.24 86.107 203.838 85.8773C203.444 85.6393 203.149 85.344 202.952 84.9912C202.755 84.6383 202.657 84.224 202.657 83.7481C202.657 83.3871 202.734 83.0548 202.89 82.7512C203.054 82.4476 203.276 82.1851 203.555 81.9635C203.834 81.742 204.158 81.5697 204.527 81.4466C204.896 81.3235 205.294 81.262 205.721 81.262C206.394 81.262 206.989 81.3851 207.506 81.6312C208.023 81.8692 208.449 82.2261 208.786 82.702L207.875 83.8096C207.596 83.4322 207.272 83.1491 206.903 82.9604C206.542 82.7635 206.148 82.665 205.721 82.665C205.426 82.665 205.167 82.7061 204.946 82.7881C204.732 82.8702 204.564 82.9891 204.441 83.145C204.318 83.2927 204.256 83.4732 204.256 83.6866C204.256 83.8507 204.293 83.9984 204.367 84.1296C204.441 84.2527 204.544 84.3635 204.675 84.4619C204.814 84.5604 204.991 84.6465 205.204 84.7204C205.417 84.7942 205.66 84.8599 205.93 84.9173C206.382 85.0076 206.788 85.1306 207.149 85.2865C207.51 85.4342 207.817 85.6147 208.072 85.8281C208.326 86.0332 208.519 86.2711 208.65 86.5419C208.782 86.8045 208.847 87.0998 208.847 87.428C208.847 87.9942 208.712 88.4824 208.441 88.8926C208.178 89.2947 207.805 89.6064 207.321 89.828C206.837 90.0413 206.271 90.148 205.623 90.148ZM204.884 91.1449L204.933 85.5081L206.053 85.9142L206.103 91.1449H204.884ZM206.484 85.9142L205.364 85.5081L205.315 80.3759H206.533L206.484 85.9142ZM212.994 90.0249C212.559 90.0249 212.153 89.947 211.775 89.7911C211.406 89.6352 211.082 89.4218 210.803 89.1511C210.532 88.8721 210.319 88.548 210.163 88.1788C210.007 87.8096 209.929 87.4034 209.929 86.9603C209.929 86.7142 209.958 86.4516 210.016 86.1727C210.081 85.8937 210.176 85.5983 210.299 85.2865C210.43 84.9665 210.582 84.6342 210.754 84.2896C210.926 83.945 211.127 83.584 211.357 83.2066L212.502 81.262H214.028L214.077 81.3851L212.612 83.7973C212.374 84.1912 212.165 84.5645 211.985 84.9173C211.804 85.2619 211.648 85.5942 211.517 85.9142C211.394 86.226 211.291 86.5296 211.209 86.825L210.877 85.705C211 85.4424 211.152 85.2045 211.332 84.9912C211.513 84.7778 211.714 84.5973 211.935 84.4496C212.157 84.3019 212.387 84.1912 212.625 84.1173C212.871 84.0435 213.121 84.0066 213.375 84.0066C213.851 84.0066 214.29 84.1378 214.692 84.4004C215.094 84.6547 215.414 84.9953 215.652 85.4219C215.898 85.8486 216.022 86.3163 216.022 86.825C216.022 87.4403 215.89 87.9901 215.628 88.4742C215.373 88.9501 215.016 89.3275 214.557 89.6064C214.097 89.8854 213.576 90.0249 212.994 90.0249ZM213.006 88.6219C213.302 88.6219 213.564 88.5521 213.794 88.4126C214.032 88.2731 214.216 88.0803 214.348 87.8342C214.479 87.5798 214.545 87.2885 214.545 86.9603C214.545 86.6814 214.475 86.4229 214.335 86.185C214.204 85.9388 214.024 85.7419 213.794 85.5942C213.564 85.4383 213.306 85.3604 213.019 85.3604C212.707 85.3604 212.428 85.4342 212.182 85.5819C211.944 85.7214 211.755 85.9142 211.615 86.1604C211.484 86.3983 211.419 86.665 211.419 86.9603C211.419 87.2721 211.484 87.5552 211.615 87.8096C211.755 88.0557 211.944 88.2526 212.182 88.4003C212.42 88.548 212.694 88.6219 213.006 88.6219ZM220.014 90.0618C219.465 90.0618 218.96 89.9511 218.501 89.7295C218.049 89.4998 217.688 89.1962 217.418 88.8188C217.147 88.4331 217.011 88.0065 217.011 87.5388C217.011 87.2598 217.048 87.0014 217.122 86.7634C217.204 86.5255 217.319 86.3122 217.467 86.1234C217.623 85.9347 217.807 85.7665 218.021 85.6188C218.242 85.4629 218.492 85.3276 218.771 85.2127L218.673 85.5573C218.46 85.467 218.263 85.3604 218.082 85.2373C217.91 85.1142 217.758 84.9747 217.627 84.8188C217.504 84.6547 217.409 84.4824 217.344 84.3019C217.278 84.1132 217.245 83.9163 217.245 83.7112C217.245 83.2681 217.368 82.8702 217.614 82.5174C217.869 82.1645 218.205 81.8856 218.624 81.6804C219.042 81.4671 219.506 81.3605 220.014 81.3605C220.531 81.3605 220.999 81.4671 221.417 81.6804C221.836 81.8856 222.168 82.1645 222.414 82.5174C222.669 82.8702 222.796 83.2681 222.796 83.7112C222.796 83.9163 222.763 84.1132 222.697 84.3019C222.632 84.4824 222.537 84.6506 222.414 84.8065C222.3 84.9542 222.152 85.0937 221.971 85.225C221.791 85.3481 221.582 85.4588 221.344 85.5573L221.282 85.2619C221.545 85.3522 221.783 85.4711 221.996 85.6188C222.209 85.7665 222.394 85.9388 222.55 86.1357C222.706 86.3327 222.825 86.5501 222.907 86.788C222.997 87.026 223.042 87.2762 223.042 87.5388C223.042 88.0147 222.907 88.4454 222.636 88.8311C222.365 89.2085 222 89.508 221.541 89.7295C221.089 89.9511 220.581 90.0618 220.014 90.0618ZM220.014 88.6834C220.293 88.6834 220.544 88.6301 220.765 88.5234C220.987 88.4167 221.159 88.2731 221.282 88.0926C221.413 87.9121 221.479 87.7029 221.479 87.465C221.479 87.2106 221.413 86.9891 221.282 86.8003C221.159 86.6034 220.987 86.4516 220.765 86.345C220.544 86.2301 220.293 86.1727 220.014 86.1727C219.744 86.1727 219.498 86.2301 219.276 86.345C219.063 86.4516 218.89 86.6034 218.759 86.8003C218.628 86.9891 218.562 87.2106 218.562 87.465C218.562 87.6947 218.628 87.8998 218.759 88.0803C218.89 88.2608 219.063 88.4085 219.276 88.5234C219.498 88.6301 219.744 88.6834 220.014 88.6834ZM220.014 84.8188C220.261 84.8188 220.478 84.7737 220.667 84.6835C220.864 84.5932 221.015 84.4701 221.122 84.3142C221.229 84.1583 221.282 83.9778 221.282 83.7727C221.282 83.5594 221.229 83.3748 221.122 83.2189C221.015 83.0548 220.864 82.9276 220.667 82.8373C220.478 82.7389 220.261 82.6897 220.014 82.6897C219.777 82.6897 219.559 82.7389 219.362 82.8373C219.173 82.9276 219.026 83.0548 218.919 83.2189C218.812 83.3748 218.759 83.5594 218.759 83.7727C218.759 83.9778 218.812 84.1583 218.919 84.3142C219.026 84.4701 219.173 84.5932 219.362 84.6835C219.559 84.7737 219.777 84.8188 220.014 84.8188ZM225.097 90.1603C224.801 90.1603 224.572 90.0741 224.407 89.9018C224.252 89.7295 224.174 89.4875 224.174 89.1757C224.174 88.8885 224.256 88.6547 224.42 88.4742C224.592 88.2854 224.818 88.1911 225.097 88.1911C225.392 88.1911 225.618 88.2772 225.774 88.4495C225.938 88.6136 226.02 88.8557 226.02 89.1757C226.02 89.4629 225.934 89.7008 225.761 89.8895C225.597 90.07 225.376 90.1603 225.097 90.1603ZM230.442 90.148C229.744 90.148 229.145 89.9716 228.645 89.6188C228.152 89.2577 227.771 88.749 227.5 88.0926C227.238 87.428 227.106 86.6362 227.106 85.7173C227.106 84.7983 227.238 84.0107 227.5 83.3543C227.771 82.6897 228.152 82.1809 228.645 81.8281C229.145 81.4671 229.744 81.2866 230.442 81.2866C231.139 81.2866 231.738 81.4671 232.238 81.8281C232.739 82.1809 233.12 82.6897 233.383 83.3543C233.654 84.0107 233.789 84.7983 233.789 85.7173C233.789 86.6362 233.654 87.428 233.383 88.0926C233.12 88.749 232.739 89.2577 232.238 89.6188C231.738 89.9716 231.139 90.148 230.442 90.148ZM230.442 88.7449C231.016 88.7449 231.459 88.4824 231.771 87.9572C232.091 87.4239 232.251 86.6773 232.251 85.7173C232.251 84.7491 232.091 83.9984 231.771 83.465C231.459 82.9317 231.016 82.665 230.442 82.665C229.867 82.665 229.42 82.9317 229.1 83.465C228.788 83.9984 228.632 84.7491 228.632 85.7173C228.632 86.6773 228.788 87.4239 229.1 87.9572C229.42 88.4824 229.867 88.7449 230.442 88.7449ZM238.206 90.148C237.508 90.148 236.909 89.9716 236.409 89.6188C235.917 89.2577 235.535 88.749 235.264 88.0926C235.002 87.428 234.871 86.6362 234.871 85.7173C234.871 84.7983 235.002 84.0107 235.264 83.3543C235.535 82.6897 235.917 82.1809 236.409 81.8281C236.909 81.4671 237.508 81.2866 238.206 81.2866C238.903 81.2866 239.502 81.4671 240.003 81.8281C240.503 82.1809 240.885 82.6897 241.147 83.3543C241.418 84.0107 241.553 84.7983 241.553 85.7173C241.553 86.6362 241.418 87.428 241.147 88.0926C240.885 88.749 240.503 89.2577 240.003 89.6188C239.502 89.9716 238.903 90.148 238.206 90.148ZM238.206 88.7449C238.78 88.7449 239.223 88.4824 239.535 87.9572C239.855 87.4239 240.015 86.6773 240.015 85.7173C240.015 84.7491 239.855 83.9984 239.535 83.465C239.223 82.9317 238.78 82.665 238.206 82.665C237.631 82.665 237.184 82.9317 236.864 83.465C236.553 83.9984 236.397 84.7491 236.397 85.7173C236.397 86.6773 236.553 87.4239 236.864 87.9572C237.184 88.4824 237.631 88.7449 238.206 88.7449Z" fill="white"/>
</g>
<rect x="1.04449" y="26.025" width="263.912" height="44.8971" rx="5.89732" fill="#1C1C1C"/>
<rect x="1.04449" y="26.025" width="263.912" height="44.8971" rx="5.89732" stroke="#262626" stroke-width="0.512811"/>
<rect x="13.0957" y="37.2085" width="22.5976" height="22.5298" rx="11.2649" fill="#CAFF33"/>
<path fill-rule="evenodd" clip-rule="evenodd" d="M26.3694 43.7113C26.1955 43.8976 26.2064 44.1888 26.3937 44.3617L27.6898 45.5587L22.3891 45.5587C22.1335 45.5587 21.9263 45.7647 21.9263 46.0189C21.9263 46.2731 22.1335 46.4792 22.3891 46.4792L27.6898 46.4792L26.3937 47.6761C26.2064 47.8491 26.1955 48.1403 26.3694 48.3266C26.5434 48.5128 26.8362 48.5236 27.0235 48.3507L29.1833 46.3562C29.2776 46.2691 29.3311 46.1469 29.3311 46.0189C29.3311 45.8909 29.2776 45.7687 29.1833 45.6817L27.0235 43.6872C26.8362 43.5142 26.5434 43.525 26.3694 43.7113ZM22.4197 48.6207C22.2458 48.4345 21.9529 48.4237 21.7656 48.5966L19.6059 50.5911C19.5116 50.6782 19.458 50.8004 19.458 50.9284C19.458 51.0563 19.5116 51.1786 19.6059 51.2656L21.7656 53.2601C21.9529 53.4331 22.2458 53.4223 22.4197 53.236C22.5936 53.0497 22.5828 52.7585 22.3955 52.5855L21.0994 51.3886H26.4001C26.6557 51.3886 26.8629 51.1826 26.8629 50.9284C26.8629 50.6742 26.6557 50.4681 26.4001 50.4681H21.0994L22.3955 49.2712C22.5828 49.0982 22.5936 48.807 22.4197 48.6207Z" fill="#1C1C1C"/>
<path d="M42.9443 43.9734V38.2135H41.0982V37.512H45.5843V38.2135H43.6643V43.9734H42.9443ZM45.9752 43.9734V39.155H46.6675L46.686 40.4381L46.6121 40.2627C46.6798 40.0473 46.7875 39.8473 46.9352 39.6627C47.089 39.4781 47.2706 39.3304 47.4798 39.2196C47.689 39.1089 47.9198 39.0535 48.1721 39.0535C48.2767 39.0535 48.3752 39.0627 48.4675 39.0812C48.5598 39.0935 48.6367 39.1119 48.6982 39.1366L48.5044 39.9119C48.4244 39.875 48.3413 39.8504 48.2552 39.8381C48.1752 39.8196 48.0982 39.8104 48.0244 39.8104C47.8152 39.8104 47.6275 39.8473 47.4613 39.9212C47.2952 39.995 47.1536 40.0996 47.0367 40.235C46.9198 40.3642 46.8306 40.515 46.769 40.6873C46.7075 40.8596 46.6767 41.0442 46.6767 41.2411V43.9734H45.9752ZM51.0944 44.0657C50.6759 44.0657 50.2975 43.958 49.959 43.7426C49.6205 43.5211 49.3529 43.2226 49.1559 42.8473C48.959 42.4657 48.8606 42.035 48.8606 41.555C48.8606 41.0688 48.9621 40.6381 49.1652 40.2627C49.3682 39.8873 49.639 39.5919 49.9775 39.3766C50.3221 39.1612 50.7067 39.0535 51.1313 39.0535C51.3836 39.0535 51.6174 39.0904 51.8328 39.1643C52.0482 39.2381 52.239 39.3427 52.4051 39.4781C52.5774 39.6073 52.7189 39.7612 52.8297 39.9396C52.9466 40.1119 53.0266 40.2996 53.0697 40.5027L52.8666 40.4011L52.8943 39.155H53.5866V43.9734H52.8851V42.7919L53.0697 42.6719C53.0266 42.8565 52.9436 43.0349 52.8205 43.2072C52.6974 43.3734 52.5466 43.5211 52.3682 43.6503C52.1959 43.7795 51.999 43.8811 51.7774 43.9549C51.562 44.0288 51.3344 44.0657 51.0944 44.0657ZM51.2513 43.4011C51.5713 43.4011 51.8574 43.3242 52.1097 43.1703C52.362 43.0103 52.5589 42.7919 52.7005 42.515C52.8482 42.2319 52.922 41.9119 52.922 41.555C52.922 41.1981 52.8482 40.8811 52.7005 40.6042C52.5589 40.3273 52.362 40.1088 52.1097 39.9489C51.8574 39.7889 51.5713 39.7089 51.2513 39.7089C50.9251 39.7089 50.6359 39.7889 50.3836 39.9489C50.1375 40.1088 49.9405 40.3273 49.7928 40.6042C49.6513 40.8811 49.5805 41.1981 49.5805 41.555C49.5805 41.9057 49.6513 42.2227 49.7928 42.5057C49.9344 42.7826 50.1313 43.0011 50.3836 43.1611C50.6359 43.3211 50.9251 43.4011 51.2513 43.4011ZM54.9354 43.9734V39.155H55.6184L55.6461 40.1612L55.5354 40.2073C55.5969 39.9981 55.7169 39.8073 55.8954 39.635C56.0738 39.4627 56.2861 39.3242 56.5323 39.2196C56.7846 39.1089 57.043 39.0535 57.3076 39.0535C57.6645 39.0535 57.963 39.1243 58.203 39.2658C58.443 39.4073 58.6245 39.6258 58.7476 39.9212C58.8707 40.2165 58.9322 40.5919 58.9322 41.0473V43.9734H58.2307V41.0842C58.2307 40.7642 58.1876 40.5027 58.1015 40.2996C58.0215 40.0904 57.8953 39.9365 57.723 39.8381C57.5507 39.7396 57.3384 39.6935 57.0861 39.6996C56.8769 39.6996 56.683 39.7365 56.5046 39.8104C56.3261 39.8781 56.1723 39.9735 56.043 40.0965C55.9138 40.2196 55.8123 40.3612 55.7384 40.5211C55.6646 40.6811 55.6277 40.8534 55.6277 41.0381V43.9734H55.2861C55.2431 43.9734 55.1938 43.9734 55.1384 43.9734C55.0831 43.9734 55.0154 43.9734 54.9354 43.9734ZM61.8322 44.0657C61.4199 44.0657 61.0507 43.9888 60.7245 43.8349C60.3984 43.6811 60.1399 43.478 59.9492 43.2257L60.4384 42.8011C60.6168 43.0165 60.8261 43.1796 61.0661 43.2903C61.3122 43.4011 61.5861 43.4565 61.8876 43.4565C62.0414 43.4565 62.1799 43.4411 62.303 43.4103C62.426 43.3734 62.5337 43.3211 62.626 43.2534C62.7183 43.1857 62.7891 43.1057 62.8383 43.0134C62.8876 42.9211 62.9122 42.8196 62.9122 42.7088C62.9122 42.5057 62.823 42.3365 62.6445 42.2011C62.5645 42.1457 62.4507 42.0903 62.303 42.035C62.1553 41.9734 61.9768 41.915 61.7676 41.8596C61.423 41.7611 61.1368 41.6627 60.9091 41.5642C60.6815 41.4596 60.503 41.3396 60.3738 41.2042C60.2815 41.0934 60.2107 40.9734 60.1615 40.8442C60.1184 40.715 60.0969 40.5735 60.0969 40.4196C60.0969 40.2227 60.1369 40.0412 60.2169 39.875C60.303 39.7089 60.4199 39.5642 60.5676 39.4412C60.7215 39.3119 60.8999 39.2166 61.103 39.155C61.3122 39.0873 61.5368 39.0535 61.7768 39.0535C62.0045 39.0535 62.2291 39.0843 62.4507 39.1458C62.6722 39.2073 62.8783 39.2966 63.0691 39.4135C63.2599 39.5304 63.4229 39.6689 63.5583 39.8289L63.1337 40.2904C63.0168 40.1673 62.8876 40.0565 62.746 39.9581C62.6045 39.8596 62.4537 39.7827 62.2937 39.7273C62.1399 39.6719 61.9799 39.6442 61.8137 39.6442C61.6661 39.6442 61.5276 39.6627 61.3984 39.6996C61.2753 39.7365 61.1676 39.7889 61.0753 39.8565C60.9891 39.9181 60.9215 39.995 60.8722 40.0873C60.8291 40.1796 60.8076 40.2812 60.8076 40.3919C60.8076 40.4842 60.8261 40.5673 60.863 40.6411C60.8999 40.715 60.9522 40.7796 61.0199 40.835C61.1061 40.9027 61.2261 40.9673 61.3799 41.0288C61.5399 41.0842 61.7368 41.1427 61.9707 41.2042C62.2414 41.2781 62.4691 41.355 62.6537 41.435C62.8445 41.5088 63.0014 41.598 63.1245 41.7027C63.2906 41.8257 63.4076 41.9673 63.4753 42.1273C63.5491 42.2873 63.586 42.4688 63.586 42.6719C63.586 42.9426 63.5091 43.1826 63.3553 43.3919C63.2076 43.6011 63.0014 43.7672 62.7368 43.8903C62.4722 44.0072 62.1707 44.0657 61.8322 44.0657ZM66.5538 44.0657C66.1353 44.0657 65.7569 43.958 65.4184 43.7426C65.08 43.5211 64.8123 43.2226 64.6154 42.8473C64.4185 42.4657 64.32 42.035 64.32 41.555C64.32 41.0688 64.4215 40.6381 64.6246 40.2627C64.8277 39.8873 65.0984 39.5919 65.4369 39.3766C65.7815 39.1612 66.1661 39.0535 66.5907 39.0535C66.843 39.0535 67.0769 39.0904 67.2922 39.1643C67.5076 39.2381 67.6984 39.3427 67.8645 39.4781C68.0368 39.6073 68.1784 39.7612 68.2892 39.9396C68.4061 40.1119 68.4861 40.2996 68.5291 40.5027L68.3261 40.4011L68.3538 39.155H69.0461V43.9734H68.3445V42.7919L68.5291 42.6719C68.4861 42.8565 68.403 43.0349 68.2799 43.2072C68.1568 43.3734 68.0061 43.5211 67.8276 43.6503C67.6553 43.7795 67.4584 43.8811 67.2369 43.9549C67.0215 44.0288 66.7938 44.0657 66.5538 44.0657ZM66.7107 43.4011C67.0307 43.4011 67.3169 43.3242 67.5692 43.1703C67.8215 43.0103 68.0184 42.7919 68.1599 42.515C68.3076 42.2319 68.3815 41.9119 68.3815 41.555C68.3815 41.1981 68.3076 40.8811 68.1599 40.6042C68.0184 40.3273 67.8215 40.1088 67.5692 39.9489C67.3169 39.7889 67.0307 39.7089 66.7107 39.7089C66.3846 39.7089 66.0953 39.7889 65.843 39.9489C65.5969 40.1088 65.4 40.3273 65.2523 40.6042C65.1108 40.8811 65.04 41.1981 65.04 41.555C65.04 41.9057 65.1108 42.2227 65.2523 42.5057C65.3938 42.7826 65.5907 43.0011 65.843 43.1611C66.0953 43.3211 66.3846 43.4011 66.7107 43.4011ZM72.4255 44.0657C71.9702 44.0657 71.564 43.958 71.2071 43.7426C70.8502 43.5211 70.5671 43.2226 70.3579 42.8473C70.1548 42.4657 70.0533 42.035 70.0533 41.555C70.0533 41.075 70.1548 40.6473 70.3579 40.2719C70.5671 39.8904 70.8502 39.5919 71.2071 39.3766C71.564 39.1612 71.9732 39.0535 72.4348 39.0535C72.8471 39.0535 73.2224 39.1366 73.5609 39.3027C73.8994 39.4627 74.1701 39.6873 74.3732 39.9765L73.967 40.475C73.8501 40.3212 73.7086 40.1858 73.5424 40.0688C73.3824 39.9519 73.2071 39.8627 73.0163 39.8012C72.8317 39.7335 72.6471 39.6996 72.4625 39.6996C72.1363 39.6996 71.844 39.7827 71.5856 39.9489C71.3271 40.1088 71.1209 40.3273 70.9671 40.6042C70.8194 40.8811 70.7456 41.1981 70.7456 41.555C70.7456 41.9119 70.8194 42.2319 70.9671 42.515C71.1209 42.7919 71.3271 43.0103 71.5856 43.1703C71.844 43.3303 72.1332 43.4103 72.4532 43.4103C72.6378 43.4103 72.8194 43.3826 72.9978 43.3272C73.1763 43.2657 73.3455 43.1796 73.5055 43.0688C73.6655 42.958 73.8132 42.8196 73.9486 42.6534L74.3547 43.1519C74.1455 43.4288 73.8655 43.6503 73.5147 43.8165C73.164 43.9826 72.8009 44.0657 72.4255 44.0657ZM75.9181 43.9734V37.8904H76.6104V43.9734H75.9181ZM74.8289 39.8196V39.155H77.8288V39.8196H74.8289ZM78.8635 43.9734V39.155H79.5558V43.9734H78.8635ZM79.205 38.112C79.0327 38.112 78.9004 38.0689 78.8081 37.9827C78.722 37.8904 78.6789 37.7674 78.6789 37.6135C78.6789 37.4597 78.7251 37.3366 78.8174 37.2443C78.9097 37.152 79.0389 37.1058 79.205 37.1058C79.3712 37.1058 79.5004 37.152 79.5927 37.2443C79.685 37.3304 79.7312 37.4535 79.7312 37.6135C79.7312 37.7612 79.685 37.8812 79.5927 37.9735C79.5004 38.0658 79.3712 38.112 79.205 38.112ZM83.1999 44.0657C82.72 44.0657 82.2923 43.958 81.9169 43.7426C81.5477 43.5272 81.2554 43.2288 81.04 42.8473C80.8308 42.4657 80.7261 42.0319 80.7261 41.5457C80.7261 41.0658 80.8308 40.6381 81.04 40.2627C81.2554 39.8873 81.5477 39.5919 81.9169 39.3766C82.2923 39.1612 82.72 39.0535 83.1999 39.0535C83.6738 39.0535 84.0953 39.1612 84.4645 39.3766C84.8399 39.5919 85.1322 39.8873 85.3414 40.2627C85.5568 40.6381 85.6645 41.0658 85.6645 41.5457C85.6645 42.0319 85.5568 42.4657 85.3414 42.8473C85.1322 43.2288 84.8399 43.5272 84.4645 43.7426C84.0953 43.958 83.6738 44.0657 83.1999 44.0657ZM83.1999 43.4103C83.5384 43.4103 83.8399 43.3303 84.1045 43.1703C84.3692 43.0042 84.5753 42.7826 84.723 42.5057C84.8707 42.2227 84.9445 41.9027 84.9445 41.5457C84.9445 41.1888 84.8707 40.8719 84.723 40.595C84.5753 40.3181 84.3692 40.1027 84.1045 39.9489C83.8399 39.7889 83.5384 39.7089 83.1999 39.7089C82.8615 39.7089 82.5569 39.7889 82.2861 39.9489C82.0215 40.1027 81.8123 40.3212 81.6584 40.6042C81.5107 40.8811 81.44 41.195 81.4461 41.5457C81.44 41.9027 81.5107 42.2227 81.6584 42.5057C81.8123 42.7826 82.0215 43.0042 82.2861 43.1703C82.5569 43.3303 82.8615 43.4103 83.1999 43.4103ZM86.6745 43.9734V39.155H87.3576L87.3853 40.1612L87.2745 40.2073C87.3361 39.9981 87.4561 39.8073 87.6345 39.635C87.813 39.4627 88.0253 39.3242 88.2714 39.2196C88.5237 39.1089 88.7822 39.0535 89.0468 39.0535C89.4037 39.0535 89.7022 39.1243 89.9422 39.2658C90.1822 39.4073 90.3637 39.6258 90.4868 39.9212C90.6099 40.2165 90.6714 40.5919 90.6714 41.0473V43.9734H89.9699V41.0842C89.9699 40.7642 89.9268 40.5027 89.8406 40.2996C89.7606 40.0904 89.6345 39.9365 89.4622 39.8381C89.2899 39.7396 89.0776 39.6935 88.8253 39.6996C88.616 39.6996 88.4222 39.7365 88.2437 39.8104C88.0653 39.8781 87.9114 39.9735 87.7822 40.0965C87.653 40.2196 87.5514 40.3612 87.4776 40.5211C87.4038 40.6811 87.3668 40.8534 87.3668 41.0381V43.9734H87.0253C86.9822 43.9734 86.933 43.9734 86.8776 43.9734C86.8222 43.9734 86.7545 43.9734 86.6745 43.9734Z" fill="white"/>
<path d="M43.4469 59.076C43.2144 59.076 42.9922 59.0452 42.7802 58.9836C42.5683 58.9221 42.37 58.8332 42.1854 58.717C42.0076 58.6007 41.8469 58.464 41.7033 58.3067C41.5597 58.1426 41.4367 57.9649 41.3341 57.7734L42.0315 57.0452C42.1751 57.2503 42.305 57.4144 42.4213 57.5375C42.5443 57.6606 42.6606 57.7563 42.77 57.8247C42.8794 57.8931 42.9888 57.9409 43.0982 57.9683C43.2076 57.9888 43.3238 57.999 43.4469 57.999C43.693 57.999 43.9084 57.9443 44.093 57.8349C44.2776 57.7187 44.4212 57.5615 44.5238 57.3632C44.6263 57.1649 44.6776 56.9392 44.6776 56.6863V52.8197H43.3648V51.794H46.893V52.8197H45.7853V56.7888C45.7853 57.117 45.7272 57.4213 45.6109 57.7016C45.5015 57.9751 45.3409 58.2144 45.1289 58.4196C44.9238 58.6247 44.6776 58.7854 44.3905 58.9016C44.1101 59.0178 43.7956 59.076 43.4469 59.076ZM50.0498 59.076C49.5233 59.076 49.0515 58.9563 48.6344 58.717C48.2242 58.4708 47.8994 58.1392 47.6601 57.7221C47.4208 57.2982 47.3011 56.8162 47.3011 56.276C47.3011 55.7358 47.4208 55.2572 47.6601 54.8401C47.8994 54.4162 48.2242 54.0846 48.6344 53.8453C49.0515 53.5991 49.5233 53.4761 50.0498 53.4761C50.5694 53.4761 51.0344 53.5991 51.4446 53.8453C51.8617 54.0846 52.1899 54.4162 52.4292 54.8401C52.6686 55.2572 52.7882 55.7358 52.7882 56.276C52.7882 56.8162 52.6686 57.2982 52.4292 57.7221C52.1899 58.1392 51.8617 58.4708 51.4446 58.717C51.0344 58.9563 50.5694 59.076 50.0498 59.076ZM50.0498 58.1119C50.3712 58.1119 50.6583 58.0332 50.9113 57.876C51.1643 57.7119 51.3626 57.4931 51.5062 57.2196C51.6498 56.9392 51.7181 56.6247 51.7113 56.276C51.7181 55.9205 51.6498 55.6059 51.5062 55.3324C51.3626 55.0521 51.1643 54.8333 50.9113 54.676C50.6583 54.5188 50.3712 54.4401 50.0498 54.4401C49.7284 54.4401 49.4378 54.5222 49.178 54.6863C48.925 54.8436 48.7267 55.0624 48.5832 55.3427C48.4396 55.6162 48.3712 55.9273 48.378 56.276C48.3712 56.6247 48.4396 56.9392 48.5832 57.2196C48.7267 57.4931 48.925 57.7119 49.178 57.876C49.4378 58.0332 49.7284 58.1119 50.0498 58.1119ZM56.4521 59.076C55.8982 59.076 55.4059 58.9597 54.9752 58.7272C54.5513 58.4879 54.2162 58.1631 53.9701 57.7529C53.7308 57.3427 53.6111 56.8709 53.6111 56.3375C53.6111 55.9136 53.6795 55.5273 53.8162 55.1786C53.953 54.8299 54.141 54.529 54.3803 54.276C54.6265 54.0162 54.9171 53.8179 55.2521 53.6812C55.594 53.5376 55.9632 53.4658 56.3598 53.4658C56.7085 53.4658 57.0333 53.5342 57.3341 53.6709C57.635 53.8008 57.8948 53.982 58.1136 54.2145C58.3392 54.447 58.5102 54.7239 58.6264 55.0453C58.7495 55.3598 58.8076 55.7051 58.8007 56.0811L58.7905 56.5324H54.3906L54.1547 55.6914H57.8777L57.7238 55.8658V55.6196C57.7033 55.394 57.6281 55.1923 57.4982 55.0145C57.3683 54.8367 57.2042 54.6965 57.0059 54.594C56.8076 54.4914 56.5922 54.4401 56.3598 54.4401C55.9905 54.4401 55.6794 54.5119 55.4265 54.6555C55.1735 54.7923 54.982 54.9974 54.8521 55.2709C54.7222 55.5376 54.6572 55.8692 54.6572 56.2657C54.6572 56.6418 54.7359 56.97 54.8931 57.2503C55.0504 57.5238 55.2726 57.7358 55.5598 57.8862C55.847 58.0367 56.1786 58.1119 56.5546 58.1119C56.8213 58.1119 57.0674 58.0674 57.2931 57.9785C57.5256 57.8896 57.7751 57.729 58.0418 57.4965L58.5751 58.2452C58.411 58.4093 58.2093 58.5529 57.97 58.676C57.7375 58.799 57.488 58.8982 57.2213 58.9734C56.9615 59.0418 56.7051 59.076 56.4521 59.076ZM59.9693 58.9734V51.3838H61.0257V58.9734H59.9693ZM66.5871 56.7991L66.5256 55.5581L70.2896 51.794H71.746L66.5871 56.7991ZM65.6641 58.9734V51.794H66.7717V58.9734H65.6641ZM70.423 58.9734L67.6743 55.3017L68.4948 54.594L71.8076 58.9734H70.423ZM74.9613 59.076C74.4075 59.076 73.9152 58.9597 73.4844 58.7272C73.0605 58.4879 72.7255 58.1631 72.4793 57.7529C72.24 57.3427 72.1204 56.8709 72.1204 56.3375C72.1204 55.9136 72.1887 55.5273 72.3255 55.1786C72.4622 54.8299 72.6503 54.529 72.8896 54.276C73.1357 54.0162 73.4263 53.8179 73.7614 53.6812C74.1032 53.5376 74.4725 53.4658 74.869 53.4658C75.2177 53.4658 75.5425 53.5342 75.8434 53.6709C76.1442 53.8008 76.404 53.982 76.6228 54.2145C76.8485 54.447 77.0194 54.7239 77.1357 55.0453C77.2587 55.3598 77.3168 55.7051 77.31 56.0811L77.2998 56.5324H72.8998L72.6639 55.6914H76.3869L76.2331 55.8658V55.6196C76.2126 55.394 76.1374 55.1923 76.0075 55.0145C75.8776 54.8367 75.7135 54.6965 75.5152 54.594C75.3169 54.4914 75.1015 54.4401 74.869 54.4401C74.4998 54.4401 74.1887 54.5119 73.9357 54.6555C73.6827 54.7923 73.4913 54.9974 73.3614 55.2709C73.2315 55.5376 73.1665 55.8692 73.1665 56.2657C73.1665 56.6418 73.2451 56.97 73.4024 57.2503C73.5597 57.5238 73.7819 57.7358 74.069 57.8862C74.3562 58.0367 74.6878 58.1119 75.0639 58.1119C75.3306 58.1119 75.5767 58.0674 75.8023 57.9785C76.0348 57.8896 76.2844 57.729 76.551 57.4965L77.0844 58.2452C76.9203 58.4093 76.7186 58.5529 76.4793 58.676C76.2468 58.799 75.9972 58.8982 75.7306 58.9734C75.4707 59.0418 75.2143 59.076 74.9613 59.076ZM78.4581 58.9734V53.5889H79.5145V54.6965L79.3298 54.8196C79.3982 54.5803 79.5315 54.3615 79.7298 54.1632C79.9281 53.9581 80.164 53.794 80.4375 53.6709C80.711 53.541 80.9913 53.4761 81.2785 53.4761C81.6888 53.4761 82.0306 53.5581 82.3041 53.7222C82.5776 53.8795 82.7828 54.1222 82.9195 54.4504C83.0563 54.7786 83.1246 55.1923 83.1246 55.6914V58.9734H82.0683V55.7632C82.0683 55.4555 82.0272 55.2025 81.9452 55.0042C81.8631 54.7991 81.7366 54.6521 81.5657 54.5632C81.3948 54.4675 81.1828 54.4265 80.9298 54.4401C80.7247 54.4401 80.5367 54.4743 80.3657 54.5427C80.1948 54.6042 80.0444 54.6931 79.9144 54.8094C79.7914 54.9256 79.6922 55.0624 79.617 55.2196C79.5486 55.37 79.5145 55.5341 79.5145 55.7119V58.9734H78.9914C78.9025 58.9734 78.8136 58.9734 78.7247 58.9734C78.6358 58.9734 78.547 58.9734 78.4581 58.9734ZM84.5782 58.9734V51.3838H85.6346V58.9734H84.5782ZM89.5444 59.076C88.9906 59.076 88.4983 58.9597 88.0675 58.7272C87.6436 58.4879 87.3085 58.1631 87.0624 57.7529C86.8231 57.3427 86.7034 56.8709 86.7034 56.3375C86.7034 55.9136 86.7718 55.5273 86.9085 55.1786C87.0453 54.8299 87.2333 54.529 87.4726 54.276C87.7188 54.0162 88.0094 53.8179 88.3444 53.6812C88.6863 53.5376 89.0555 53.4658 89.4521 53.4658C89.8008 53.4658 90.1256 53.5342 90.4264 53.6709C90.7273 53.8008 90.9871 53.982 91.2059 54.2145C91.4315 54.447 91.6025 54.7239 91.7187 55.0453C91.8418 55.3598 91.8999 55.7051 91.8931 56.0811L91.8828 56.5324H87.4829L87.247 55.6914H90.97L90.8162 55.8658V55.6196C90.7956 55.394 90.7204 55.1923 90.5905 55.0145C90.4606 54.8367 90.2965 54.6965 90.0982 54.594C89.8999 54.4914 89.6846 54.4401 89.4521 54.4401C89.0829 54.4401 88.7718 54.5119 88.5188 54.6555C88.2658 54.7923 88.0743 54.9974 87.9444 55.2709C87.8145 55.5376 87.7495 55.8692 87.7495 56.2657C87.7495 56.6418 87.8282 56.97 87.9854 57.2503C88.1427 57.5238 88.3649 57.7358 88.6521 57.8862C88.9393 58.0367 89.2709 58.1119 89.6469 58.1119C89.9136 58.1119 90.1598 58.0674 90.3854 57.9785C90.6179 57.8896 90.8674 57.729 91.1341 57.4965L91.6674 58.2452C91.5033 58.4093 91.3016 58.5529 91.0623 58.676C90.8298 58.799 90.5803 58.8982 90.3136 58.9734C90.0538 59.0418 89.7974 59.076 89.5444 59.076ZM93.8435 61.3323L94.9307 58.8195L94.9409 59.6606L92.2538 53.5889H93.4845L95.1666 57.5478C95.2007 57.6161 95.2418 57.7221 95.2896 57.8657C95.3375 58.0025 95.3785 58.1392 95.4127 58.276L95.146 58.3375C95.2007 58.1939 95.252 58.0503 95.2999 57.9067C95.3546 57.7632 95.4059 57.6196 95.4537 57.476L96.8588 53.5889H98.1101L95.8947 58.9734L94.9819 61.3323H93.8435Z" fill="white"/>
<path d="M207.545 56.1798V54.7276H211.348V56.1798H207.545ZM215.878 59.0967C215.14 59.0967 214.492 58.9613 213.934 58.6906C213.376 58.4198 212.9 58.0219 212.506 57.4967L213.454 56.2537C213.872 56.7952 214.278 57.1726 214.672 57.386C215.066 57.5993 215.509 57.706 216.002 57.706C216.281 57.706 216.535 57.6649 216.765 57.5829C216.994 57.4926 217.175 57.3737 217.306 57.226C217.437 57.0701 217.503 56.8937 217.503 56.6968C217.503 56.5573 217.474 56.4301 217.417 56.3152C217.368 56.1921 217.29 56.0855 217.183 55.9952C217.076 55.8968 216.945 55.8065 216.789 55.7245C216.633 55.6424 216.457 55.5727 216.26 55.5152C216.063 55.4578 215.846 55.4045 215.608 55.3552C215.001 55.2322 214.496 55.0558 214.094 54.826C213.7 54.5881 213.405 54.2927 213.208 53.9399C213.011 53.5871 212.912 53.1727 212.912 52.6968C212.912 52.3358 212.99 52.0035 213.146 51.6999C213.31 51.3963 213.532 51.1338 213.811 50.9122C214.09 50.6907 214.414 50.5184 214.783 50.3953C215.152 50.2723 215.55 50.2107 215.977 50.2107C216.65 50.2107 217.245 50.3338 217.762 50.5799C218.278 50.8179 218.705 51.1748 219.041 51.6507L218.131 52.7584C217.852 52.3809 217.528 52.0979 217.158 51.9092C216.797 51.7122 216.404 51.6138 215.977 51.6138C215.682 51.6138 215.423 51.6548 215.202 51.7368C214.988 51.8189 214.82 51.9379 214.697 52.0938C214.574 52.2415 214.512 52.422 214.512 52.6353C214.512 52.7994 214.549 52.9471 214.623 53.0784C214.697 53.2014 214.8 53.3122 214.931 53.4107C215.07 53.5091 215.247 53.5953 215.46 53.6691C215.673 53.743 215.915 53.8086 216.186 53.866C216.637 53.9563 217.044 54.0794 217.405 54.2353C217.766 54.383 218.073 54.5635 218.328 54.7768C218.582 54.9819 218.775 55.2199 218.906 55.4906C219.037 55.7532 219.103 56.0486 219.103 56.3768C219.103 56.9429 218.968 57.4311 218.697 57.8413C218.434 58.2434 218.061 58.5552 217.577 58.7767C217.093 58.99 216.527 59.0967 215.878 59.0967ZM215.14 60.0936L215.189 54.4568L216.309 54.8629L216.358 60.0936H215.14ZM216.74 54.8629L215.62 54.4568L215.571 49.3246H216.789L216.74 54.8629ZM223.25 58.9736C222.815 58.9736 222.409 58.8957 222.031 58.7398C221.662 58.5839 221.338 58.3706 221.059 58.0998C220.788 57.8208 220.575 57.4967 220.419 57.1275C220.263 56.7583 220.185 56.3521 220.185 55.9091C220.185 55.6629 220.214 55.4004 220.271 55.1214C220.337 54.8424 220.431 54.5471 220.554 54.2353C220.686 53.9153 220.838 53.583 221.01 53.2384C221.182 52.8937 221.383 52.5327 221.613 52.1553L222.757 50.2107H224.284L224.333 50.3338L222.868 52.7461C222.63 53.1399 222.421 53.5132 222.241 53.866C222.06 54.2106 221.904 54.5429 221.773 54.8629C221.65 55.1747 221.547 55.4783 221.465 55.7737L221.133 54.6537C221.256 54.3912 221.408 54.1532 221.588 53.9399C221.769 53.7266 221.97 53.546 222.191 53.3984C222.413 53.2507 222.643 53.1399 222.881 53.0661C223.127 52.9922 223.377 52.9553 223.631 52.9553C224.107 52.9553 224.546 53.0866 224.948 53.3491C225.35 53.6035 225.67 53.944 225.908 54.3706C226.154 54.7973 226.277 55.265 226.277 55.7737C226.277 56.3891 226.146 56.9388 225.884 57.4229C225.629 57.8988 225.272 58.2762 224.813 58.5552C224.353 58.8341 223.832 58.9736 223.25 58.9736ZM223.262 57.5706C223.557 57.5706 223.82 57.5008 224.05 57.3614C224.288 57.2219 224.472 57.0291 224.604 56.7829C224.735 56.5286 224.801 56.2373 224.801 55.9091C224.801 55.6301 224.731 55.3717 224.591 55.1337C224.46 54.8876 224.279 54.6906 224.05 54.5429C223.82 54.3871 223.562 54.3091 223.274 54.3091C222.963 54.3091 222.684 54.383 222.437 54.5306C222.2 54.6701 222.011 54.8629 221.871 55.1091C221.74 55.347 221.674 55.6137 221.674 55.9091C221.674 56.2209 221.74 56.5039 221.871 56.7583C222.011 57.0044 222.2 57.2014 222.437 57.349C222.675 57.4967 222.95 57.5706 223.262 57.5706ZM230.27 59.0106C229.721 59.0106 229.216 58.8998 228.756 58.6783C228.305 58.4485 227.944 58.1449 227.673 57.7675C227.403 57.3819 227.267 56.9552 227.267 56.4875C227.267 56.2086 227.304 55.9501 227.378 55.7122C227.46 55.4742 227.575 55.2609 227.723 55.0722C227.879 54.8835 228.063 54.7153 228.276 54.5676C228.498 54.4117 228.748 54.2763 229.027 54.1614L228.929 54.506C228.715 54.4158 228.519 54.3091 228.338 54.186C228.166 54.063 228.014 53.9235 227.883 53.7676C227.76 53.6035 227.665 53.4312 227.6 53.2507C227.534 53.062 227.501 52.865 227.501 52.6599C227.501 52.2168 227.624 51.8189 227.87 51.4661C228.125 51.1133 228.461 50.8343 228.88 50.6292C229.298 50.4158 229.762 50.3092 230.27 50.3092C230.787 50.3092 231.255 50.4158 231.673 50.6292C232.092 50.8343 232.424 51.1133 232.67 51.4661C232.925 51.8189 233.052 52.2168 233.052 52.6599C233.052 52.865 233.019 53.062 232.953 53.2507C232.888 53.4312 232.793 53.5994 232.67 53.7553C232.555 53.903 232.408 54.0424 232.227 54.1737C232.047 54.2968 231.837 54.4076 231.6 54.506L231.538 54.2106C231.801 54.3009 232.038 54.4199 232.252 54.5676C232.465 54.7153 232.65 54.8876 232.806 55.0845C232.962 55.2814 233.081 55.4988 233.163 55.7368C233.253 55.9747 233.298 56.225 233.298 56.4875C233.298 56.9634 233.163 57.3942 232.892 57.7798C232.621 58.1572 232.256 58.4567 231.796 58.6783C231.345 58.8998 230.836 59.0106 230.27 59.0106ZM230.27 57.6321C230.549 57.6321 230.8 57.5788 231.021 57.4721C231.243 57.3655 231.415 57.2219 231.538 57.0414C231.669 56.8609 231.735 56.6516 231.735 56.4137C231.735 56.1593 231.669 55.9378 231.538 55.7491C231.415 55.5522 231.243 55.4004 231.021 55.2937C230.8 55.1788 230.549 55.1214 230.27 55.1214C230 55.1214 229.753 55.1788 229.532 55.2937C229.319 55.4004 229.146 55.5522 229.015 55.7491C228.884 55.9378 228.818 56.1593 228.818 56.4137C228.818 56.6434 228.884 56.8485 229.015 57.0291C229.146 57.2096 229.319 57.3573 229.532 57.4721C229.753 57.5788 230 57.6321 230.27 57.6321ZM230.27 53.7676C230.516 53.7676 230.734 53.7225 230.923 53.6322C231.12 53.5419 231.271 53.4189 231.378 53.263C231.485 53.1071 231.538 52.9266 231.538 52.7214C231.538 52.5081 231.485 52.3235 231.378 52.1676C231.271 52.0035 231.12 51.8763 230.923 51.7861C230.734 51.6876 230.516 51.6384 230.27 51.6384C230.032 51.6384 229.815 51.6876 229.618 51.7861C229.429 51.8763 229.282 52.0035 229.175 52.1676C229.068 52.3235 229.015 52.5081 229.015 52.7214C229.015 52.9266 229.068 53.1071 229.175 53.263C229.282 53.4189 229.429 53.5419 229.618 53.6322C229.815 53.7225 230.032 53.7676 230.27 53.7676ZM235.353 59.109C235.057 59.109 234.827 59.0229 234.663 58.8506C234.507 58.6783 234.429 58.4362 234.429 58.1244C234.429 57.8372 234.512 57.6034 234.676 57.4229C234.848 57.2342 235.074 57.1398 235.353 57.1398C235.648 57.1398 235.874 57.226 236.029 57.3983C236.194 57.5624 236.276 57.8044 236.276 58.1244C236.276 58.4116 236.189 58.6495 236.017 58.8383C235.853 59.0188 235.631 59.109 235.353 59.109ZM240.697 59.0967C240 59.0967 239.401 58.9203 238.901 58.5675C238.408 58.2065 238.027 57.6978 237.756 57.0414C237.493 56.3768 237.362 55.585 237.362 54.666C237.362 53.7471 237.493 52.9594 237.756 52.303C238.027 51.6384 238.408 51.1297 238.901 50.7769C239.401 50.4158 240 50.2353 240.697 50.2353C241.395 50.2353 241.994 50.4158 242.494 50.7769C242.995 51.1297 243.376 51.6384 243.639 52.303C243.91 52.9594 244.045 53.7471 244.045 54.666C244.045 55.585 243.91 56.3768 243.639 57.0414C243.376 57.6978 242.995 58.2065 242.494 58.5675C241.994 58.9203 241.395 59.0967 240.697 59.0967ZM240.697 57.6937C241.272 57.6937 241.715 57.4311 242.027 56.906C242.347 56.3727 242.507 55.626 242.507 54.666C242.507 53.6978 242.347 52.9471 242.027 52.4138C241.715 51.8804 241.272 51.6138 240.697 51.6138C240.123 51.6138 239.676 51.8804 239.356 52.4138C239.044 52.9471 238.888 53.6978 238.888 54.666C238.888 55.626 239.044 56.3727 239.356 56.906C239.676 57.4311 240.123 57.6937 240.697 57.6937ZM248.462 59.0967C247.764 59.0967 247.165 58.9203 246.665 58.5675C246.173 58.2065 245.791 57.6978 245.52 57.0414C245.258 56.3768 245.126 55.585 245.126 54.666C245.126 53.7471 245.258 52.9594 245.52 52.303C245.791 51.6384 246.173 51.1297 246.665 50.7769C247.165 50.4158 247.764 50.2353 248.462 50.2353C249.159 50.2353 249.758 50.4158 250.259 50.7769C250.759 51.1297 251.141 51.6384 251.403 52.303C251.674 52.9594 251.809 53.7471 251.809 54.666C251.809 55.585 251.674 56.3768 251.403 57.0414C251.141 57.6978 250.759 58.2065 250.259 58.5675C249.758 58.9203 249.159 59.0967 248.462 59.0967ZM248.462 57.6937C249.036 57.6937 249.479 57.4311 249.791 56.906C250.111 56.3727 250.271 55.626 250.271 54.666C250.271 53.6978 250.111 52.9471 249.791 52.4138C249.479 51.8804 249.036 51.6138 248.462 51.6138C247.887 51.6138 247.44 51.8804 247.12 52.4138C246.808 52.9471 246.652 53.6978 246.652 54.666C246.652 55.626 246.808 56.3727 247.12 56.906C247.44 57.4311 247.887 57.6937 248.462 57.6937Z" fill="white"/>
</svg>
